# Blender v2.82 (sub 7) OBJ File: 'Coral.blend'
# www.blender.org
mtllib coral10.mtl
o Coral_Cube.012
v -1.455037 0.097900 0.160351
v -1.458474 0.198060 0.258954
v -1.547666 0.243037 0.169586
v -1.455037 0.097900 -0.103739
v -1.548180 0.238481 -0.101278
v -1.485075 2.150686 -0.051064
v -1.455306 0.188398 -0.193039
v -1.190947 0.097900 0.160351
v -1.098080 0.240899 0.167444
v -1.185197 0.199803 0.258235
v -1.190947 0.097900 -0.103739
v -1.187587 0.188785 -0.192635
v -1.097785 0.238255 -0.101249
v -1.470351 2.405974 0.092013
v -1.385285 2.353827 0.181195
v -1.410868 1.748023 -0.152762
v -1.147408 1.831193 -0.062883
v -1.261780 2.372559 -0.123806
v -1.266571 2.494444 0.171922
v -1.221462 3.417734 0.041924
v -1.332121 3.655209 0.043688
v -1.389267 3.477184 0.032711
v -1.340973 3.414618 -0.039158
v -1.398739 0.122963 0.453846
v -1.402908 0.183441 0.519258
v -1.457352 0.214271 0.462707
v -1.397073 0.131613 0.286383
v -1.464951 0.240113 0.284312
v -1.231053 0.122437 0.455487
v -1.171977 0.212985 0.466499
v -1.229441 0.183298 0.521279
v -1.221378 0.163287 0.245027
v -1.170015 0.219825 0.294781
v -1.367688 2.209914 0.478995
v -1.399921 0.205912 0.222859
v -1.199105 1.228817 0.371002
v -1.311356 2.157252 0.413666
v -1.315789 1.761100 0.549413
v -1.244872 2.248606 0.489749
v -1.313771 2.383050 0.496877
v -1.438691 0.096661 -0.170863
v -1.441497 0.169537 -0.118380
v -1.498252 0.187544 -0.177491
v -1.443126 0.072941 -0.336813
v -1.513375 0.179720 -0.356245
v -1.271064 0.097665 -0.175486
v -1.204683 0.204072 -0.185177
v -1.266890 0.169939 -0.122610
v -1.273130 0.095776 -0.389239
v -1.326240 1.343184 -0.545115
v -1.217569 0.162884 -0.354623
v -1.464212 1.535999 -0.419337
v -1.402946 2.309420 -0.565214
v -1.451139 0.134729 -0.411817
v -1.314269 2.172413 -0.554614
v -1.376086 1.723150 -0.394904
v -1.391698 2.146050 -0.596783
v -1.527586 0.086723 0.100089
v -1.537183 0.193380 0.171756
v -1.627006 0.205837 0.092516
v -1.547192 0.041934 -0.134147
v -1.647039 0.157058 -0.145526
v -1.771933 1.398733 -0.341683
v -1.563459 0.107298 -0.229666
v -1.291165 0.113889 0.075107
v -1.224432 0.251070 0.049856
v -1.290759 0.219809 0.145526
v -1.310770 0.069099 -0.159130
v -1.327891 0.133570 -0.252725
v -1.619824 1.962040 -0.521218
v -1.244403 0.203291 -0.188797
v -1.889355 2.970720 -0.536936
v -1.730866 2.097341 -0.248392
v -1.705088 1.483505 -0.442799
v -1.538729 1.968994 -0.446815
v -1.641760 2.226851 -0.288869
v -1.714932 3.012897 -0.554293
v -1.847268 3.225690 -0.581332
v -1.833964 2.983485 -0.615315
v -1.339108 0.129687 0.103795
v -1.360065 0.233878 0.173788
v -1.410049 0.263252 0.068335
v -1.274995 0.091319 -0.123525
v -1.345463 0.221058 -0.162952
v -1.207695 1.463235 -0.302031
v -1.246401 0.159210 -0.212092
v -1.109518 0.118964 0.170358
v -1.019210 0.243983 0.181493
v -1.120932 0.224447 0.243344
v -1.045405 0.080595 -0.056962
v -1.017339 0.148907 -0.147529
v -0.920558 1.968545 -0.369556
v -0.953931 0.202572 -0.049376
v -1.014999 3.038864 -0.418595
v -1.097103 2.204643 -0.163386
v -1.094351 1.556670 -0.366663
v -0.880558 1.633338 -0.233582
v -0.993629 2.219535 -0.135798
v -0.844265 3.067137 -0.366197
v -0.917604 3.290697 -0.424291
v -0.929521 3.059324 -0.465448
v -1.212834 0.155196 -0.291881
v -1.176592 0.128860 -0.420893
v -1.097003 0.144659 -0.263606
v -1.063468 0.125276 -0.388706
v -1.058903 1.178902 -0.452993
v -1.056888 0.934713 -0.510916
v -1.003494 1.231245 -0.487670
v -1.049496 1.316064 -0.518079
v -1.635429 0.160728 0.286089
v -1.667225 0.204138 0.266118
v -1.669183 0.219512 0.153089
v -1.628884 0.167229 0.127347
v -1.518210 0.146771 0.262111
v -1.496163 0.190902 0.297608
v -1.500206 0.179985 0.129402
v -1.591920 1.168350 0.346814
v -1.600141 1.438076 0.255290
v -1.544971 1.478703 0.306029
v -1.618159 1.607043 0.320838
v -1.682164 0.090462 -0.064252
v -1.701685 0.076613 -0.196608
v -1.574513 0.138741 -0.072420
v -2.043334 1.058855 -0.290465
v -1.588503 0.111925 -0.210635
v -1.954844 0.893248 -0.177800
v -2.034717 1.150285 -0.262993
v -2.106587 1.191818 -0.258112
v -1.228476 0.161487 0.313817
v -1.244145 0.215996 0.290321
v -1.190041 0.155129 0.172699
v -1.216459 0.240406 0.169261
v -1.109072 0.113826 0.310888
v -1.081952 0.151366 0.355878
v -1.062459 0.146756 0.172707
v -1.027218 0.173967 0.217768
v -0.820592 1.636236 0.480594
v -1.169540 0.207751 0.134530
v -0.818869 1.498129 0.416652
v -0.914977 1.202178 0.478380
v -0.774100 1.489787 0.471049
v -1.035041 0.181779 0.025768
v -1.059222 0.246814 0.061709
v -0.990995 0.174130 -0.130873
v -1.020665 0.273257 -0.144791
v -0.963286 0.226146 -0.182644
v -0.884225 0.139225 0.070254
v -0.853043 0.195503 0.126108
v -0.818569 0.151564 -0.118576
v -0.534056 1.360450 -0.082431
v -0.764685 0.200271 -0.067434
v -0.572514 1.531780 -0.091167
v -0.538403 1.901023 -0.002046
v -0.520429 1.788686 0.096696
v -0.340279 2.101408 0.049222
v -0.376176 2.273035 0.018759
v -0.405984 2.170644 0.055165
vt 0.625000 0.314189
vt 0.625000 0.428007
vt 0.426159 0.447891
vt 0.625000 0.564113
vt 0.625000 0.618855
vt 0.427134 0.697889
vt 0.625000 0.182202
vt 0.625000 0.071877
vt 0.625000 0.116354
vt 0.625000 0.928138
vt 0.625000 0.822850
vt 0.625000 0.866354
vt 0.177111 0.697889
vt 0.177111 0.750000
vt 0.125000 0.697889
vt 0.177111 0.552111
vt 0.125000 0.552111
vt 0.177111 0.500000
vt 0.322889 0.697889
vt 0.375000 0.697889
vt 0.322889 0.750000
vt 0.322889 0.552111
vt 0.322889 0.500000
vt 0.375000 0.552111
vt 0.429254 0.802114
vt 0.428734 0.947886
vt 0.625000 0.250000
vt 0.625000 0.250000
vt 0.625000 0.115943
vt 0.625000 0.500000
vt 0.625000 0.500000
vt 0.625000 0.362769
vt 0.425838 0.302111
vt 0.426158 0.552111
vt 0.625000 0.378577
vt 0.428571 0.302260
vt 0.625000 0.368610
vt 0.426159 0.447891
vt 0.427280 0.697889
vt 0.625000 0.564630
vt 0.625000 0.617798
vt 0.177111 0.697889
vt 0.177111 0.750000
vt 0.125000 0.697889
vt 0.177111 0.552111
vt 0.125000 0.552111
vt 0.177111 0.500000
vt 0.322889 0.697889
vt 0.375000 0.697889
vt 0.322889 0.750000
vt 0.625000 0.250000
vt 0.625000 0.250000
vt 0.625000 0.115964
vt 0.625000 0.500000
vt 0.625000 0.500000
vt 0.426158 0.552111
vt 0.177111 0.697889
vt 0.177111 0.750000
vt 0.125000 0.697889
vt 0.177111 0.552111
vt 0.125000 0.552111
vt 0.177111 0.500000
vt 0.322889 0.697889
vt 0.375000 0.697889
vt 0.322889 0.750000
vt 0.426227 0.552111
vt 0.426068 0.447889
vt 0.625000 0.431967
vt 0.625000 0.840448
vt 0.429742 0.697660
vt 0.625000 0.613403
vt 0.625000 0.500000
vt 0.625000 0.500000
vt 0.625000 0.361177
vt 0.625000 0.376327
vt 0.428777 0.302269
vt 0.625000 0.630282
vt 0.625000 0.928095
vt 0.625000 0.822850
vt 0.625000 0.866354
vt 0.177111 0.697889
vt 0.177111 0.750000
vt 0.125000 0.697889
vt 0.177111 0.552111
vt 0.125000 0.552111
vt 0.177111 0.500000
vt 0.322889 0.697889
vt 0.375000 0.697889
vt 0.322889 0.750000
vt 0.322889 0.552111
vt 0.322889 0.500000
vt 0.375000 0.552111
vt 0.426227 0.552111
vt 0.425678 0.447889
vt 0.625000 0.430809
vt 0.625000 0.250000
vt 0.625000 0.250000
vt 0.625000 0.115257
vt 0.625000 0.500000
vt 0.625000 0.500000
vt 0.625000 0.361944
vt 0.625000 0.571011
vt 0.625000 0.564113
vt 0.625000 0.619057
vt 0.427134 0.697889
vt 0.625000 0.927666
vt 0.625000 0.822488
vt 0.625000 0.866354
vt 0.177111 0.697889
vt 0.177111 0.750000
vt 0.125000 0.697889
vt 0.177111 0.552111
vt 0.125000 0.552111
vt 0.177111 0.500000
vt 0.322889 0.697889
vt 0.375000 0.697889
vt 0.322889 0.750000
vt 0.322889 0.552111
vt 0.322889 0.500000
vt 0.375000 0.552111
vt 0.625000 0.250000
vt 0.625000 0.250000
vt 0.625000 0.115718
vt 0.625000 0.500000
vt 0.625000 0.500000
vt 0.625000 0.362769
vt 0.426158 0.552111
vt 0.625000 0.289505
vt 0.427232 0.259760
vt 0.625000 0.338174
vt 0.625000 0.750000
vt 0.625000 0.750000
vt 0.625000 0.615959
vt 0.385082 0.731615
vt 0.343131 0.521767
vt 0.625000 0.631205
vt 0.625000 0.500000
vt 0.625000 0.500000
vt 0.625000 0.366639
vt 0.426159 0.464247
vt 0.425838 0.302111
vt 0.625000 0.379626
vt 0.428482 0.760696
vt 0.625000 0.628835
vt 0.426097 0.466800
vt 0.625000 0.618855
vt 0.428476 0.787827
vt 0.625000 0.500000
vt 0.625000 0.500000
vt 0.625000 0.364389
vt 0.625000 0.372780
vt 0.625000 0.634092
vt 0.428454 0.302262
vt 0.625000 0.368937
vt 0.426531 0.447890
vt 0.177111 0.552111
vt 0.125000 0.552111
vt 0.177111 0.500000
vt 0.625000 0.500000
vt 0.625000 0.500000
vt 0.428327 0.760276
vt 0.426158 0.552111
vt 0.625000 0.628979
vt 0.625000 0.431963
vt 0.625000 0.322192
vt 0.625000 0.499356
vt 0.177111 0.552111
vt 0.125000 0.552111
vt 0.177111 0.500000
vt 0.426236 0.552111
vt 0.425838 0.447889
vt 0.625000 0.750000
vt 0.625000 0.750000
vt 0.625000 0.619207
vt 0.625000 0.633329
vt 0.427700 0.052113
vt 0.625000 0.072228
vt 0.426247 0.197889
vt 0.625000 0.883646
vt 0.427443 0.052112
vt 0.625000 0.129796
vt 0.430376 0.197689
vt 0.625000 0.000000
vt 0.625000 0.201952
vt 0.625000 0.883646
vt 0.625000 0.857465
vt 0.625000 0.633646
vt 0.427443 0.052112
vt 0.625000 0.072168
vt 0.430597 0.197675
vt 0.322889 0.519525
vt 0.625000 0.231997
vt 0.625000 0.883646
vt 0.427443 0.052112
vt 0.625000 0.129358
vt 0.625000 0.188113
vt 0.426247 0.197889
vt 0.625000 0.201953
vt 0.625000 0.000000
vt 0.625000 0.619511
vt 0.625000 0.883646
vt 0.427443 0.052112
vt 0.625000 0.129470
vt 0.625000 0.188238
vt 0.426247 0.197889
vt 0.625000 0.000000
vt 0.625000 0.208077
vt 0.625000 0.883646
vt 0.427443 0.052112
vt 0.625000 0.200145
vt 0.426103 0.468300
vt 0.625000 0.873453
vt 0.428443 0.963170
vt 0.625000 1.000000
vt 0.427700 0.052113
vt 0.625000 0.190901
vt 0.429198 0.197744
vt 0.625000 0.229348
vt 0.322889 0.697889
vt 0.177111 0.725946
vt 0.343598 0.729291
vt 0.625000 0.838718
vt 0.625000 0.614951
vt 0.625000 0.883646
vt 0.427700 0.052113
vt 0.625000 0.190080
vt 0.426415 0.274583
vt 0.428506 0.968439
vt 0.625000 0.781439
vt 0.625000 1.000000
vt 0.625000 0.883646
vt 0.427700 0.052113
vt 0.625000 0.187230
vt 0.430398 0.197688
vt 0.322889 0.518328
vt 0.177111 0.725842
vt 0.322889 0.697889
vt 0.343808 0.729081
vt 0.625000 0.792336
vt 0.625000 0.615146
vt 0.625000 0.883646
vt 0.426159 0.302109
vt 0.625000 0.371732
vt 0.426451 0.197888
vt 0.427742 0.052113
vt 0.322889 0.523967
vt 0.428599 0.965354
vt 0.625000 0.699098
vt 0.625000 1.000000
vt 0.625000 0.883646
vt 0.625000 1.000000
vt 0.427700 0.999997
vt 0.625000 0.000000
vt 0.625000 0.200655
vt 0.625000 0.133646
vt 0.625000 0.633646
vt 0.625000 0.382440
vt 0.428806 0.947886
vt 0.429019 0.802114
vt 0.322889 0.518015
vt 0.625000 1.000000
vt 0.427443 0.999999
vt 0.429122 0.947884
vt 0.428953 0.802114
vt 0.625000 1.000000
vt 0.427443 0.999999
vt 0.625000 0.192603
vt 0.625000 0.071808
vt 0.625000 0.000000
vt 0.427134 0.697889
vt 0.428701 0.802115
vt 0.429380 0.947885
vt 0.625000 0.313891
vt 0.426080 0.302111
vt 0.625000 0.377411
vt 0.625000 1.000000
vt 0.427443 0.999999
vt 0.625000 0.633646
vt 0.429259 0.802115
vt 0.428806 0.947886
vt 0.625000 0.314189
vt 0.425838 0.302111
vt 0.426068 0.447889
vt 0.625000 0.431320
vt 0.625000 0.378577
vt 0.625000 1.000000
vt 0.427443 0.999999
vt 0.625000 0.633646
vt 0.164998 0.534387
vt 0.336729 0.714752
vt 0.165498 0.725868
vt 0.625000 0.499356
vt 0.125000 0.697889
vt 0.125000 0.552111
vt 0.177111 0.527304
vt 0.428560 0.947886
vt 0.625000 1.000000
vt 0.427700 0.999997
vt 0.339096 0.523373
vt 0.341639 0.528793
vt 0.337205 0.732252
vt 0.164859 0.716702
vt 0.163358 0.523877
vt 0.625000 0.227839
vt 0.625000 0.382691
vt 0.625000 0.222655
vt 0.428831 0.947887
vt 0.125000 0.697889
vt 0.625000 1.000000
vt 0.427700 0.999997
vt 0.177111 0.697889
vt 0.159643 0.732532
vt 0.428392 0.768897
vt 0.322889 0.697889
vt 0.339497 0.733392
vt 0.625000 0.000000
vt 0.625000 0.000000
vt 0.625000 0.204190
vt 0.625000 0.349373
vn 0.0543 0.0333 -0.9980
vn 0.9964 0.0416 0.0740
vn -0.9968 0.0738 -0.0292
vn -0.0491 0.1069 0.9931
vn -0.7269 -0.4943 0.4767
vn -0.7342 -0.4780 -0.4822
vn 0.7277 -0.4961 0.4737
vn 0.7408 -0.4835 -0.4663
vn 0.0121 0.0369 0.9992
vn -0.6808 0.2607 -0.6845
vn 0.5380 0.2567 -0.8029
vn 0.0015 0.0258 -0.9997
vn 0.9995 0.0311 0.0008
vn -0.1098 0.0722 -0.9913
vn 0.6299 0.0458 -0.7753
vn 0.1438 0.0898 -0.9855
vn 0.9957 0.0347 0.0860
vn -0.7399 -0.5168 0.4306
vn -0.7251 -0.4634 -0.5094
vn 0.7141 -0.5225 0.4659
vn -0.6125 0.2676 -0.7438
vn 0.5073 0.3028 -0.8068
vn 0.9995 0.0279 0.0125
vn 0.4520 0.0954 -0.8869
vn -0.7137 -0.4272 0.5551
vn -0.7400 -0.5558 -0.3788
vn 0.7478 -0.4196 0.5145
vn 0.5911 -0.0752 -0.8031
vn 0.6454 0.1755 0.7434
vn 0.4152 0.2001 -0.8875
vn -0.2404 -0.0818 -0.9672
vn 0.8151 -0.0184 -0.5790
vn 0.0212 0.2849 0.9583
vn -0.6180 -0.4760 0.6257
vn -0.7005 -0.6389 -0.3179
vn 0.8251 -0.3150 0.4691
vn 0.7496 -0.4731 -0.4630
vn 0.6168 -0.0171 -0.7869
vn -0.8188 0.0354 -0.5729
vn 0.4218 0.1487 -0.8944
vn 0.6758 0.0049 -0.7371
vn 0.9405 0.0076 0.3396
vn -0.2840 0.2681 0.9206
vn -0.8719 -0.3816 0.3070
vn -0.6169 -0.5157 -0.5945
vn 0.5262 -0.4446 0.7249
vn 0.7907 -0.5809 -0.1932
vn -0.5052 0.1763 -0.8448
vn 0.7533 0.0774 -0.6531
vn 0.9615 -0.0140 0.2744
vn -0.5840 -0.0039 -0.8117
vn 0.1699 0.4129 0.8948
vn 0.9644 -0.0288 0.2630
vn 0.4724 0.3621 -0.8036
vn 0.0060 0.1000 -0.9950
vn 0.9989 0.0380 -0.0265
vn 0.6193 0.1267 -0.7749
vn 0.9090 0.3822 -0.1662
vn 0.0958 0.2781 -0.9557
vn 0.5459 0.1935 -0.8152
vn 0.3827 0.0969 -0.9188
vn -0.6795 -0.2385 -0.6938
vn 0.7619 0.2799 -0.5841
vn 0.9156 -0.2385 0.3238
vn 0.7701 -0.0237 -0.6375
vn 0.3769 0.0374 -0.9255
vn -0.6840 -0.2982 -0.6657
vn 0.7510 -0.1576 -0.6412
vn 0.3263 0.2309 0.9166
vn 0.9327 -0.1894 -0.3070
vn -0.9986 0.0370 0.0367
vn -0.6298 0.0791 -0.7727
vn 0.7021 0.0390 -0.7110
vn -0.9995 0.0329 0.0013
vn 0.2746 0.1209 0.9539
vn -0.7858 0.0953 -0.6111
vn -0.9978 0.0444 0.0489
vn 0.6494 0.0759 -0.7566
vn -0.5189 0.0736 0.8517
vn 0.2568 0.0805 0.9631
vn 0.6754 0.1151 -0.7284
vn 0.9956 0.0394 -0.0853
vn -0.9958 0.0399 0.0825
vn -0.0896 -0.7734 -0.6275
vn -0.9570 0.0212 -0.2894
vn 0.3209 0.2777 0.9055
vn 0.4827 -0.0170 -0.8756
vn -0.9803 -0.0495 0.1913
vn -0.9914 -0.0838 0.1006
vn -0.4009 0.2210 0.8891
vn 0.3494 0.3288 0.8774
vn -0.9756 0.1051 -0.1926
vn -0.9569 0.0747 -0.2808
vn -0.6736 0.2760 0.6856
vn 0.0229 0.2585 0.9657
vn -0.9554 0.0790 -0.2845
vn 0.2664 -0.1460 -0.9527
vn 0.4200 0.1485 0.8953
vn -0.9522 0.1818 0.2456
vn -0.9992 0.0341 0.0219
vn -0.4405 0.0998 -0.8922
vn -0.8775 0.0892 -0.4712
vn 0.8920 -0.4520 0.0079
vn 0.0778 -0.6482 0.7575
vn 0.5891 0.0170 0.8079
vn 0.3227 0.0752 0.9435
vn -0.9291 -0.3279 0.1713
vn -0.0839 -0.1237 -0.9888
vn -0.6008 -0.0918 0.7941
vn 0.2790 0.3791 0.8823
vn -0.9409 0.3013 -0.1544
vn 0.7981 -0.0378 -0.6014
vn -0.0378 -0.5770 -0.8158
vn -0.2481 -0.6650 0.7044
vn 0.3889 -0.1674 0.9059
vn 0.1116 -0.0293 0.9933
vn 0.2252 0.0009 -0.9743
vn -0.9461 0.2925 -0.1392
vn -0.0396 -0.6942 -0.7187
vn 0.3775 -0.0612 -0.9240
vn -0.8355 0.2812 0.4721
vn 0.1537 0.0612 0.9862
vn -0.7076 0.0403 -0.7055
vn -0.8383 -0.5452 0.0054
vn 0.0011 -0.7008 -0.7133
vn 0.8359 -0.5489 0.0032
vn 0.0032 -0.6972 0.7169
vn 0.7358 0.0537 0.6751
vn -0.7010 0.0500 0.7114
vn -0.6303 0.0995 0.7699
vn 0.6632 0.0922 -0.7428
vn 0.0000 -1.0000 0.0000
vn -0.6821 0.1035 -0.7239
vn -0.0117 -0.0185 0.9998
vn -0.8449 -0.5335 -0.0387
vn 0.8083 -0.5868 -0.0486
vn -0.0611 -0.6500 -0.7575
vn -0.0087 -0.7342 0.6789
vn 0.6273 0.0166 0.7786
vn -0.7152 0.0263 0.6984
vn 0.0750 -0.9890 -0.1273
vn -0.7933 -0.0253 -0.6084
vn 0.0234 0.1742 0.9844
vn -0.8378 -0.5374 0.0967
vn 0.8155 -0.5779 0.0331
vn 0.0992 -0.1192 -0.9879
vn 0.0233 -0.5874 0.8090
vn -0.6252 0.1580 0.7643
vn 0.6486 0.1754 0.7406
vn 0.0813 -0.9945 0.0657
vn -0.6199 0.1926 0.7607
vn 0.9837 0.1523 -0.0958
vn 0.0887 0.2244 0.9705
vn -0.7476 -0.1762 -0.6403
vn -0.7831 -0.1354 -0.6069
vn -0.7556 -0.6276 0.1878
vn 0.0350 -0.8210 -0.5698
vn -0.0649 -0.1569 -0.9855
vn 0.8986 -0.4386 0.0106
vn 0.1480 -0.5451 0.8252
vn 0.7719 0.2623 0.5791
vn -0.1804 -0.1277 -0.9753
vn -0.7190 0.0848 0.6898
vn 0.5572 0.0243 -0.8300
vn 0.1307 -0.9757 0.1756
vn -0.2704 0.1968 0.9424
vn -0.4662 -0.0471 -0.8834
vn 0.8548 -0.1082 -0.5076
vn -0.4871 -0.0045 -0.8733
vn -0.8523 -0.5007 -0.1512
vn 0.1272 -0.8085 -0.5745
vn 0.2781 -0.1329 -0.9513
vn 0.7533 -0.5782 0.3134
vn -0.2514 -0.5715 0.7811
vn 0.5333 0.1274 0.8362
vn 0.1841 -0.0846 -0.9793
vn -0.9064 0.1911 0.3768
vn 0.8460 -0.0571 -0.5300
vn -0.0872 -0.9860 0.1418
vn -0.1001 -0.9837 0.1495
vn -0.2173 0.1836 0.9587
vn 0.7964 -0.0966 -0.5970
vn 0.5173 -0.0261 -0.8554
vn -0.7990 -0.5982 -0.0616
vn -0.0700 -0.0570 0.9959
vn -0.6697 -0.0098 0.7426
vn -0.0170 -0.9905 -0.1364
vn 0.3607 -0.9278 0.0948
vn 0.0107 0.1436 0.9896
vn -0.8805 -0.3380 -0.3323
vn 0.6412 0.4135 0.6464
vn -0.5078 0.3180 -0.8006
vn -0.2796 -0.0672 0.9578
vn -0.9121 -0.3232 -0.2523
vn 0.6532 -0.7520 0.0884
vn -0.7954 0.1537 0.5863
vn -0.2202 -0.9625 -0.1586
vn -0.9340 -0.2760 -0.2267
vn 0.8888 -0.2230 0.4003
vn -0.2800 0.0761 0.9570
vn 0.6342 -0.7405 0.2223
vn -0.3725 -0.5462 0.7503
vn -0.5238 0.2216 -0.8225
vn 0.3408 -0.0538 0.9386
vn -0.8410 0.3206 0.4357
vn -0.1848 -0.9801 -0.0720
vn -0.4600 0.2483 -0.8525
vn 0.6023 -0.0157 -0.7981
usemtl Coral
s off
f 16/1/1 18/2/1 12/3/1
f 17/4/2 20/5/2 9/6/2
f 6/7/3 14/8/3 22/9/3
f 15/10/4 19/11/4 21/12/4
f 1/13/5 2/14/5 3/15/5
f 4/16/6 5/17/6 7/18/6
f 8/19/7 9/20/7 10/21/7
f 11/22/8 12/23/8 13/24/8
f 10/25/9 19/11/9 15/10/9 2/26/9
f 21/27/10 23/28/10 22/29/10
f 21/30/11 20/31/11 23/32/11
f 12/3/12 7/33/12 16/1/12
f 9/6/13 13/34/13 17/4/13
f 18/2/14 16/1/14 23/35/14
f 18/2/15 17/4/15 12/3/15
f 35/36/16 37/37/16 32/38/16
f 30/39/17 36/40/17 39/41/17
f 24/42/18 25/43/18 26/44/18
f 27/45/19 28/46/19 35/47/19
f 29/48/20 30/49/20 31/50/20
f 40/51/21 37/52/21 34/53/21
f 40/54/22 39/55/22 37/37/22
f 30/39/23 33/56/23 36/40/23
f 37/37/24 36/40/24 32/38/24
f 41/57/25 42/58/25 43/59/25
f 44/60/26 45/61/26 54/62/26
f 46/63/27 47/64/27 48/65/27
f 51/66/28 49/67/28 50/68/28
f 56/69/29 47/70/29 55/71/29
f 53/72/30 55/73/30 57/74/30
f 57/75/31 50/68/31 54/76/31
f 50/68/32 55/77/32 51/66/32
f 73/78/33 76/79/33 78/80/33
f 58/81/34 59/82/34 60/83/34
f 61/84/35 62/85/35 64/86/35
f 65/87/36 66/88/36 67/89/36
f 68/90/37 69/91/37 71/92/37
f 71/93/38 69/94/38 70/95/38
f 78/96/39 79/97/39 72/98/39
f 78/99/40 77/100/40 79/101/40
f 70/95/41 75/102/41 71/93/41
f 97/103/42 99/104/42 88/105/42
f 95/106/43 98/107/43 100/108/43
f 80/109/44 81/110/44 82/111/44
f 83/112/45 84/113/45 86/114/45
f 87/115/46 88/116/46 89/117/46
f 90/118/47 91/119/47 93/120/47
f 100/121/48 101/122/48 94/123/48
f 100/124/49 99/125/49 101/126/49
f 88/105/50 93/127/50 97/103/50
f 107/128/51 103/129/51 109/130/51
f 109/131/52 106/132/52 108/133/52
f 104/134/53 105/135/53 108/136/53
f 120/137/54 119/138/54 118/139/54
f 116/140/55 113/141/55 118/142/55
f 115/143/56 116/140/56 119/144/56
f 118/139/57 119/144/57 116/140/57
f 125/145/58 127/146/58 123/147/58
f 128/148/59 127/149/59 124/150/59
f 124/151/60 127/152/60 125/145/60
f 138/153/61 139/154/61 135/155/61
f 131/156/62 132/157/62 138/158/62
f 137/159/63 141/160/63 139/154/63
f 134/161/64 136/162/64 141/163/64
f 139/154/65 141/163/65 135/155/65
f 150/164/66 152/165/66 156/166/66
f 144/167/67 145/168/67 146/169/67
f 151/170/68 149/171/68 150/164/68
f 156/172/69 157/173/69 155/174/69
f 150/164/70 155/175/70 151/170/70
f 3/176/71 14/177/71 6/7/71
f 16/1/72 6/7/72 23/35/72
f 17/4/73 13/34/73 12/3/73
f 3/176/74 6/7/74 5/178/74
f 20/5/75 21/179/75 19/11/75
f 6/7/76 22/9/76 23/35/76
f 26/180/77 34/181/77 28/182/77
f 36/40/78 33/56/78 32/38/78
f 34/181/79 38/183/79 40/184/79
f 39/41/80 40/185/80 38/186/80
f 37/37/81 39/187/81 36/40/81
f 47/70/82 51/66/82 55/77/82
f 43/188/83 52/189/83 45/190/83
f 49/191/84 44/60/84 54/62/84
f 53/192/85 45/190/85 52/189/85
f 55/71/86 53/193/86 56/69/86
f 57/74/87 55/77/87 50/68/87
f 60/194/88 72/195/88 63/196/88
f 60/194/89 63/196/89 62/197/89
f 78/198/90 72/195/90 73/199/90
f 77/200/91 78/201/91 76/79/91
f 82/202/92 94/203/92 85/204/92
f 82/202/93 85/204/93 84/205/93
f 94/203/94 95/206/94 100/207/94
f 99/104/95 100/208/95 98/107/95
f 102/209/96 109/210/96 103/129/96
f 107/128/97 105/211/97 103/129/97
f 106/212/98 104/134/98 108/133/98
f 102/213/99 106/212/99 109/214/99
f 111/215/100 120/216/100 112/217/100
f 113/141/101 112/217/101 118/142/101
f 120/218/102 118/142/102 112/217/102
f 114/219/103 116/140/103 115/143/103
f 110/220/104 114/219/104 115/221/104
f 117/222/105 115/143/105 119/223/105
f 119/223/106 120/224/106 117/222/106
f 121/225/107 128/226/107 122/227/107
f 124/151/108 125/145/108 122/227/108
f 121/228/109 126/229/109 128/230/109
f 127/146/110 128/231/110 126/229/110
f 130/232/111 137/233/111 132/234/111
f 141/163/112 136/162/112 135/155/112
f 138/158/113 135/235/113 131/156/113
f 129/236/114 133/237/114 134/238/114
f 140/239/115 134/161/115 141/240/115
f 141/240/116 137/241/116 140/239/116
f 150/164/117 146/242/117 152/165/117
f 153/243/118 145/244/118 143/245/118
f 149/246/119 144/167/119 146/169/119
f 146/242/120 150/164/120 149/171/120
f 143/247/121 154/248/121 153/249/121
f 155/174/122 157/250/122 154/248/122
f 6/7/123 16/1/123 7/33/123 5/178/123
f 1/13/124 3/15/124 5/17/124 4/16/124
f 7/18/125 12/23/125 11/22/125 4/16/125
f 13/34/126 9/6/126 8/19/126 11/22/126
f 8/19/127 10/21/127 2/14/127 1/13/127
f 10/25/128 9/6/128 20/5/128 19/11/128
f 15/10/129 14/251/129 3/252/129 2/26/129
f 14/8/130 15/253/130 21/254/130 22/255/130
f 20/256/131 17/4/131 18/2/131 23/32/131
f 8/19/132 1/13/132 4/16/132 11/22/132
f 37/257/133 35/36/133 28/182/133 34/53/133
f 38/186/134 25/258/134 31/259/134
f 24/42/135 26/44/135 28/46/135 27/45/135
f 33/56/136 30/39/136 29/48/136 32/260/136
f 32/260/137 27/45/137 35/47/137
f 31/50/138 25/43/138 24/42/138 29/48/138
f 31/259/139 30/39/139 39/41/139 38/186/139
f 38/186/140 34/261/140 26/262/140 25/258/140
f 29/48/141 24/42/141 27/45/141 32/260/141
f 57/75/142 54/76/142 45/190/142 53/192/142
f 56/69/143 42/263/143 48/264/143
f 41/57/144 43/59/144 45/61/144 44/60/144
f 51/66/145 47/70/145 46/63/145 49/191/145
f 54/76/146 50/68/146 49/67/146
f 41/57/147 46/63/147 48/65/147 42/58/147
f 56/69/148 52/265/148 43/266/148 42/263/148
f 47/70/149 56/69/149 48/264/149
f 46/63/150 41/57/150 44/60/150 49/191/150
f 53/267/151 52/268/151 56/269/151
f 71/93/152 75/102/152 77/200/152 66/270/152
f 67/271/153 76/79/153 73/78/153 59/272/153
f 63/196/154 74/273/154 64/274/154 62/197/154
f 74/273/155 63/196/155 72/98/155 79/275/155
f 58/81/156 60/83/156 62/85/156 61/84/156
f 64/86/157 69/91/157 68/90/157 61/84/157
f 70/95/158 69/94/158 64/274/158 74/273/158
f 71/93/159 66/270/159 65/87/159 68/90/159
f 58/81/160 65/87/160 67/89/160 59/82/160
f 67/271/161 66/270/161 77/200/161 76/79/161
f 74/273/162 79/275/162 70/95/162
f 73/78/163 72/276/163 60/277/163 59/272/163
f 77/278/164 75/102/164 70/95/164 79/101/164
f 61/84/165 68/90/165 65/87/165 58/81/165
f 89/279/166 98/107/166 95/106/166 81/280/166
f 85/204/167 96/281/167 86/282/167 84/205/167
f 93/127/168 91/283/168 92/284/168 97/103/168
f 94/123/169 101/285/169 96/281/169 85/204/169
f 80/109/170 82/111/170 84/113/170 83/112/170
f 83/112/171 86/114/171 91/119/171 90/118/171
f 92/284/172 91/283/172 86/282/172 96/281/172
f 93/127/173 88/105/173 87/115/173 90/118/173
f 87/115/174 89/117/174 81/110/174 80/109/174
f 89/279/175 88/105/175 99/104/175 98/107/175
f 96/281/176 101/285/176 92/284/176
f 95/106/177 94/286/177 82/287/177 81/280/177
f 99/288/178 97/103/178 92/284/178 101/126/178
f 87/115/179 80/109/179 83/112/179 90/118/179
f 103/289/180 105/135/180 104/290/180 102/291/180
f 102/213/181 104/134/181 106/212/181
f 105/211/182 107/128/182 108/136/182
f 107/128/183 109/292/183 108/136/183
f 110/220/184 111/293/184 112/294/184 113/295/184
f 117/222/185 110/296/185 115/143/185
f 117/222/186 120/297/186 111/298/186 110/296/186
f 114/219/187 110/220/187 113/295/187 116/299/187
f 125/300/188 123/301/188 121/302/188 122/303/188
f 126/229/189 121/228/189 123/147/189
f 124/151/190 122/227/190 128/304/190
f 123/147/191 127/146/191 126/229/191
f 139/305/192 138/153/192 132/234/192 137/306/192
f 140/239/193 129/307/193 134/161/193
f 129/236/194 130/308/194 132/157/194 131/156/194
f 136/162/195 134/161/195 133/237/195 135/235/195
f 140/239/196 137/309/196 130/310/196 129/307/196
f 131/156/197 135/235/197 133/237/197 129/236/197
f 142/311/198 143/312/198 145/168/198 144/167/198
f 155/174/199 148/313/199 151/170/199
f 154/248/200 143/247/200 148/313/200
f 147/314/201 149/246/201 151/170/201 148/313/201
f 147/314/202 148/315/202 143/312/202 142/311/202
f 152/165/203 146/242/203 145/244/203 153/243/203
f 155/174/204 154/248/204 148/313/204
f 154/316/205 157/317/205 156/318/205 153/243/205
f 144/167/206 149/246/206 147/314/206 142/311/206
f 152/165/207 153/243/207 156/319/207
f 150/164/208 156/166/208 155/175/208
