# Blender v2.82 (sub 7) OBJ File: 'reef fish 5.blend'
# www.blender.org
mtllib reef fish 5.mtl
o Plane
v 0.849300 0.040535 0.182904
v 0.511718 0.040535 0.159808
v -0.022139 0.040535 0.093380
v -0.554641 0.040535 0.017938
v -0.911606 0.026684 0.001146
v 0.398455 0.045160 -0.129140
v 0.021017 0.045160 -0.255013
v -0.451774 0.045160 -0.298434
v 0.754506 0.000000 -0.075615
v 0.660391 0.000000 -0.338640
v 0.280991 0.000000 -0.678715
v 0.509525 0.000000 -0.561401
v 0.829505 0.000000 0.069316
v 0.968985 0.000000 0.122546
v 1.141606 0.000000 0.139279
v 1.170444 0.000000 0.162049
v 1.146319 0.000000 0.199902
v 0.951369 0.000000 0.239728
v 0.783668 0.000000 0.343565
v 0.550600 0.000000 0.483663
v 0.323189 0.000000 0.555480
v -0.784705 0.000000 0.628590
v 0.022974 0.000000 -0.740547
v -0.766691 0.000000 -0.730210
v -0.852589 0.000000 -0.618685
v -0.687571 0.000000 -0.091514
v -0.990362 0.000000 -0.376692
v -1.061591 0.000000 -0.332094
v -1.128607 0.000000 -0.070247
v -1.050281 0.000000 0.236493
v -0.992161 0.000000 0.309754
v -0.700709 0.000000 0.118517
v -0.877072 0.000000 0.525236
v 0.849300 -0.040535 0.182904
v 0.511718 -0.040535 0.159808
v -0.022139 -0.040535 0.093380
v -0.554641 -0.040535 0.017938
v -0.911606 -0.026684 0.001146
v 0.398455 -0.045160 -0.129140
v 0.021017 -0.045160 -0.255013
v -0.451774 -0.045160 -0.298434
vt 0.000000 0.000000
vt 0.000000 0.000000
vt 0.000000 0.000000
vt 0.000000 0.000000
vt 0.000000 0.000000
vt 0.000000 0.000000
vt 0.000000 0.000000
vt 0.000000 0.000000
vt 0.000000 0.000000
vt 0.000000 0.000000
vt 0.000000 0.000000
vt 0.000000 0.000000
vt 0.000000 0.000000
vt 0.000000 0.000000
vt 0.000000 0.000000
vt 0.000000 0.000000
vt 0.000000 0.000000
vt 0.000000 0.000000
vt 0.000000 0.000000
vt 0.000000 0.000000
vt 0.000000 0.000000
vt 0.000000 0.000000
vt 0.000000 0.000000
vt 0.000000 0.000000
vt 0.000000 0.000000
vt 0.000000 0.000000
vt 0.000000 0.000000
vt 0.000000 0.000000
vt 0.000000 0.000000
vt 0.000000 0.000000
vt 0.000000 0.000000
vt 0.000000 0.000000
vt 0.000000 0.000000
vt 0.000000 0.000000
vt 0.000000 0.000000
vt 0.000000 0.000000
vt 0.000000 0.000000
vt 0.000000 0.000000
vt 0.000000 0.000000
vt 0.000000 0.000000
vt 0.000000 0.000000
vn -0.0214 0.9457 -0.3242
vn 0.0822 0.9928 -0.0872
vn -0.0390 0.9973 -0.0623
vn -0.1126 0.9932 -0.0288
vn -0.1330 0.9905 0.0340
vn -0.0816 0.9946 0.0647
vn 0.0679 0.9923 0.1035
vn -0.0514 0.9499 0.3082
vn -0.3633 0.9183 -0.1575
vn -0.0521 0.9976 0.0466
vn -0.0089 0.9980 0.0629
vn 0.0055 0.9965 0.0833
vn -0.0120 0.9953 0.0963
vn 0.0378 0.9921 0.1196
vn 0.0695 0.9909 0.1157
vn -0.0163 0.9710 0.2383
vn 0.1943 0.9294 0.3139
vn 0.1109 0.9434 0.3126
vn -0.0021 0.9999 0.0168
vn -0.0043 0.9999 0.0128
vn -0.0012 0.9999 0.0131
vn -0.0020 0.9999 0.0140
vn -0.2421 0.9681 -0.0645
vn -0.1484 0.9878 0.0465
vn -0.0695 0.9961 -0.0535
vn -0.0013 0.9947 -0.1031
vn 0.0085 0.9957 -0.0926
vn 0.0222 0.9955 -0.0925
vn 0.0294 0.9957 -0.0881
vn 0.0471 0.9947 -0.0918
vn 0.1108 0.9910 -0.0751
vn 0.1395 0.9895 -0.0388
vn 0.1229 0.9914 -0.0440
vn 0.1103 0.9923 -0.0571
vn 0.0232 0.9403 -0.3396
vn 0.1350 0.9255 -0.3538
vn 0.0729 0.9255 -0.3716
vn -0.0214 -0.9457 -0.3242
vn 0.0822 -0.9928 -0.0872
vn -0.0390 -0.9973 -0.0623
vn -0.1126 -0.9932 -0.0288
vn -0.1330 -0.9905 0.0340
vn -0.0816 -0.9946 0.0647
vn 0.0679 -0.9923 0.1035
vn -0.0514 -0.9499 0.3082
vn -0.3633 -0.9183 -0.1575
vn -0.0521 -0.9976 0.0466
vn -0.0089 -0.9980 0.0629
vn 0.0055 -0.9965 0.0833
vn -0.0120 -0.9953 0.0963
vn 0.0378 -0.9921 0.1196
vn 0.0695 -0.9909 0.1157
vn -0.0163 -0.9710 0.2383
vn 0.1943 -0.9294 0.3139
vn 0.1109 -0.9434 0.3126
vn -0.0021 -0.9999 0.0168
vn -0.0043 -0.9999 0.0128
vn -0.0012 -0.9999 0.0131
vn -0.0020 -0.9999 0.0140
vn -0.2421 -0.9681 -0.0645
vn -0.1484 -0.9878 0.0465
vn -0.0695 -0.9961 -0.0535
vn -0.0013 -0.9947 -0.1031
vn 0.0085 -0.9957 -0.0926
vn 0.0222 -0.9955 -0.0925
vn 0.0294 -0.9957 -0.0881
vn 0.0471 -0.9947 -0.0918
vn 0.1108 -0.9910 -0.0751
vn 0.1395 -0.9895 -0.0388
vn 0.1229 -0.9914 -0.0440
vn 0.1103 -0.9923 -0.0571
vn 0.0232 -0.9403 -0.3396
vn 0.1350 -0.9255 -0.3538
vn 0.0729 -0.9255 -0.3716
usemtl None
s off
f 4/1/1 26/2/1 5/3/1
f 26/2/2 27/4/2 5/3/2
f 28/5/3 5/3/3 27/4/3
f 29/6/4 5/3/4 28/5/4
f 30/7/5 5/3/5 29/6/5
f 31/8/6 5/3/6 30/7/6
f 32/9/7 5/3/7 31/8/7
f 5/3/8 32/9/8 4/1/8
f 32/9/9 33/10/9 4/1/9
f 33/10/10 22/11/10 4/1/10
f 4/1/11 22/11/11 3/12/11
f 22/11/12 21/13/12 3/12/12
f 3/12/13 21/13/13 2/14/13
f 21/13/14 20/15/14 2/14/14
f 19/16/15 2/14/15 20/15/15
f 2/14/16 19/16/16 1/17/16
f 19/16/17 18/18/17 1/17/17
f 16/19/18 1/17/18 18/18/18 17/20/18
f 3/12/19 2/14/19 6/21/19
f 6/21/20 7/22/20 3/12/20
f 8/23/21 3/12/21 7/22/21
f 3/12/22 8/23/22 4/1/22
f 4/1/23 8/23/23 26/2/23
f 26/2/24 8/23/24 25/24/24
f 25/24/25 8/23/25 24/25/25
f 24/25/26 8/23/26 23/26/26
f 8/23/27 7/22/27 23/26/27
f 23/26/28 7/22/28 11/27/28
f 7/22/29 6/21/29 11/27/29
f 11/27/30 6/21/30 12/28/30
f 12/28/31 6/21/31 10/29/31
f 6/21/32 2/14/32 10/29/32
f 10/29/33 2/14/33 9/30/33
f 9/30/34 2/14/34 13/31/34
f 2/14/35 1/17/35 13/31/35
f 13/31/36 1/17/36 14/32/36
f 14/32/37 1/17/37 16/19/37 15/33/37
f 37/34/38 38/35/38 26/2/38
f 26/2/39 38/35/39 27/4/39
f 28/5/40 27/4/40 38/35/40
f 29/6/41 28/5/41 38/35/41
f 30/7/42 29/6/42 38/35/42
f 31/8/43 30/7/43 38/35/43
f 32/9/44 31/8/44 38/35/44
f 38/35/45 37/34/45 32/9/45
f 32/9/46 37/34/46 33/10/46
f 33/10/47 37/34/47 22/11/47
f 37/34/48 36/36/48 22/11/48
f 22/11/49 36/36/49 21/13/49
f 36/36/50 35/37/50 21/13/50
f 21/13/51 35/37/51 20/15/51
f 19/16/52 20/15/52 35/37/52
f 35/37/53 34/38/53 19/16/53
f 19/16/54 34/38/54 18/18/54
f 16/19/55 17/20/55 18/18/55 34/38/55
f 36/36/56 39/39/56 35/37/56
f 39/39/57 36/36/57 40/40/57
f 41/41/58 40/40/58 36/36/58
f 36/36/59 37/34/59 41/41/59
f 37/34/60 26/2/60 41/41/60
f 26/2/61 25/24/61 41/41/61
f 25/24/62 24/25/62 41/41/62
f 24/25/63 23/26/63 41/41/63
f 41/41/64 23/26/64 40/40/64
f 23/26/65 11/27/65 40/40/65
f 40/40/66 11/27/66 39/39/66
f 11/27/67 12/28/67 39/39/67
f 12/28/68 10/29/68 39/39/68
f 39/39/69 10/29/69 35/37/69
f 10/29/70 9/30/70 35/37/70
f 9/30/71 13/31/71 35/37/71
f 35/37/72 13/31/72 34/38/72
f 13/31/73 14/32/73 34/38/73
f 14/32/74 15/33/74 16/19/74 34/38/74
