# Blender v2.82 (sub 7) OBJ File: 'reef fish 4.blend'
# www.blender.org
mtllib reef fish 4.mtl
o Plane_Plane.002
v -0.547828 0.006405 0.041512
v 0.020704 0.007055 -0.235764
v 0.336343 0.002591 0.031182
v 0.327959 0.002651 0.111206
v -0.294917 0.015421 0.045193
v 0.444403 0.006285 0.071810
v -0.013249 0.026042 0.048552
v 0.262865 0.011253 0.064725
v 0.242629 0.007105 0.229969
v 0.444403 -0.006285 0.071810
v -0.273823 0.022213 0.088259
v -0.335125 0.017178 0.074232
v -0.323956 0.017178 0.130077
v -0.279280 0.019277 0.134545
v -0.167589 0.023710 0.101038
v -0.091640 0.028740 0.034024
v -0.105043 0.030673 -0.046394
v -0.151953 0.026282 -0.059797
v -0.547828 -0.006405 0.041512
v 0.025579 0.000000 -0.272211
v 0.020704 -0.007055 -0.235764
v 0.336343 -0.002591 0.031182
v 0.327959 -0.002651 0.111206
v -0.294917 -0.015421 0.045193
v 0.444403 -0.006285 0.071810
v -0.013249 -0.026042 0.048552
v 0.262865 -0.011253 0.064725
v 0.242629 -0.007105 0.229969
v -0.283000 0.000000 0.258836
v -0.062484 0.000000 0.313098
v -0.492302 0.000000 0.134930
v -0.537467 0.000000 0.079977
v -0.578670 0.000000 0.049454
v -0.582453 0.000000 0.016883
v -0.379479 0.000000 -0.126204
v -0.285692 0.000000 -0.166776
v -0.243737 0.000000 -0.213859
v 0.384925 0.000000 -0.263093
v 0.490709 0.000000 -0.193191
v 0.480044 0.000000 -0.079389
v 0.485027 0.000000 -0.031747
v 0.525336 0.000000 0.030477
v 0.531856 0.000000 0.103932
v 0.475669 0.000000 0.174561
v -0.126191 -0.000988 0.264540
v -0.006673 0.000000 0.276768
v 0.401172 0.000000 0.184891
v 0.427260 0.000000 0.266158
v 0.385459 0.000000 0.327619
v 0.259149 0.000000 0.358172
v 0.153135 0.000000 0.354963
v 0.444403 0.006285 0.071810
v 0.242629 0.000000 0.229969
v -0.126191 0.001969 0.264540
v -0.273823 -0.022213 0.088259
v -0.335125 -0.017178 0.074232
v -0.323956 -0.017178 0.130077
v -0.279280 -0.019277 0.134545
v -0.167589 -0.023710 0.101038
v -0.091640 -0.028740 0.034024
v -0.105043 -0.030673 -0.046394
v -0.151953 -0.026282 -0.059797
vt 0.000000 0.000000
vt 0.000000 0.000000
vt 0.000000 0.000000
vt 0.000000 0.000000
vt 0.000000 0.000000
vt 0.000000 0.000000
vt 0.000000 0.000000
vt 0.000000 0.000000
vt 0.000000 0.000000
vt 0.000000 0.000000
vt 0.000000 0.000000
vt 0.000000 0.000000
vt 0.000000 0.000000
vt 0.000000 0.000000
vt 0.000000 0.000000
vt 0.000000 0.000000
vt 0.000000 0.000000
vt 0.000000 0.000000
vt 0.000000 0.000000
vt 0.000000 0.000000
vt 0.000000 0.000000
vt 0.000000 0.000000
vt 0.000000 0.000000
vt 0.000000 0.000000
vt 0.000000 0.000000
vt 0.000000 0.000000
vt 0.000000 0.000000
vt 0.000000 0.000000
vt 0.000000 0.000000
vt 0.000000 0.000000
vt 0.000000 0.000000
vt 0.000000 0.000000
vt 0.000000 0.000000
vt 0.000000 0.000000
vt 0.000000 0.000000
vt 0.000000 0.000000
vt 0.000000 0.000000
vt 0.000000 0.000000
vt 0.000000 0.000000
vt 0.000000 0.000000
vt 0.000000 0.000000
vt 0.000000 0.000000
vt 0.000000 0.000000
vt 0.000000 0.000000
vt 0.000000 0.000000
vt 0.000000 0.000000
vt 0.000000 0.000000
vt 0.000000 0.000000
vt 0.000000 0.000000
vt 0.000000 0.000000
vt 0.000000 0.000000
vt 0.000000 0.000000
vt 0.000000 0.000000
vt 0.000000 0.000000
vt 0.000000 0.000000
vt 0.000000 0.000000
vt 0.000000 0.000000
vt 0.000000 0.000000
vt 0.000000 0.000000
vt 0.000000 0.000000
vt 0.000000 0.000000
vn -0.0909 0.9875 -0.1290
vn -0.0345 0.9968 -0.0727
vn -0.0320 0.9968 -0.0739
vn 0.0174 0.9995 -0.0263
vn 0.0687 0.9970 0.0357
vn 0.0208 0.9977 -0.0641
vn -0.0390 0.9967 -0.0712
vn -0.0288 0.9993 -0.0256
vn -0.0367 0.9966 -0.0741
vn 0.0194 0.9998 0.0018
vn 0.0210 0.9879 0.1534
vn -0.0099 0.9979 -0.0644
vn 0.0582 0.9976 -0.0377
vn 0.0741 0.9972 -0.0066
vn 0.0555 0.9975 0.0441
vn -0.0095 0.9979 0.0639
vn 0.0339 0.9832 -0.1796
vn 0.0048 0.9819 -0.1894
vn 0.0603 0.9905 -0.1237
vn 0.0516 0.9982 0.0314
vn 0.1044 0.9938 0.0377
vn 0.0429 0.9991 -0.0067
vn 0.0410 0.9991 -0.0132
vn 0.0339 0.9992 0.0231
vn 0.0130 0.9985 0.0537
vn -0.0017 0.9985 0.0556
vn -0.0206 0.9989 0.0421
vn -0.0070 0.9935 0.1136
vn 0.0048 0.9936 0.1132
vn -0.0162 0.9946 0.1024
vn -0.0385 0.9965 0.0741
vn -0.0440 0.9963 0.0744
vn -0.0567 0.9973 0.0466
vn -0.1492 0.9681 0.2014
vn -0.0376 0.9840 0.1740
vn 0.0582 -0.9976 -0.0377
vn 0.0741 -0.9972 -0.0066
vn 0.0555 -0.9975 0.0441
vn 0.7094 0.0000 -0.7048
vn -0.3942 0.0000 0.9190
vn -0.3898 0.0000 -0.9209
vn 0.6098 0.0000 0.7925
vn -0.0423 0.9798 -0.1953
vn -0.0525 0.9970 0.0571
vn -0.0857 0.9962 0.0171
vn -0.0742 0.9967 -0.0337
vn -0.0818 0.9958 -0.0400
vn -0.0273 0.9992 0.0286
vn -0.0203 0.9984 0.0519
vn -0.0214 0.9979 0.0608
vn -0.0909 -0.9875 -0.1290
vn -0.0345 -0.9968 -0.0727
vn -0.0320 -0.9968 -0.0739
vn 0.0174 -0.9995 -0.0263
vn 0.0687 -0.9970 0.0357
vn 0.0208 -0.9977 -0.0641
vn -0.0390 -0.9967 -0.0712
vn -0.0288 -0.9993 -0.0256
vn -0.0367 -0.9966 -0.0741
vn 0.0194 -0.9998 0.0018
vn 0.0210 -0.9879 0.1534
vn -0.0099 -0.9979 -0.0644
vn -0.0095 -0.9979 0.0639
vn 0.0339 -0.9832 -0.1796
vn 0.0048 -0.9819 -0.1894
vn 0.0603 -0.9905 -0.1237
vn 0.0516 -0.9982 0.0314
vn 0.1044 -0.9938 0.0377
vn 0.0429 -0.9991 -0.0067
vn 0.0410 -0.9991 -0.0132
vn 0.0339 -0.9992 0.0231
vn 0.0130 -0.9985 0.0537
vn -0.0017 -0.9985 0.0556
vn -0.0206 -0.9989 0.0421
vn -0.0070 -0.9935 0.1136
vn -0.0034 -0.9935 0.1135
vn -0.0103 -0.9939 0.1099
vn -0.0385 -0.9965 0.0741
vn -0.0440 -0.9963 0.0744
vn -0.0567 -0.9973 0.0466
vn -0.1492 -0.9681 0.2014
vn -0.0376 -0.9840 0.1740
vn 0.0074 0.9995 -0.0300
vn 0.0147 -0.9981 -0.0598
vn 0.6062 0.0000 -0.7953
vn -0.1018 0.0000 0.9948
vn -0.0423 -0.9798 -0.1953
vn -0.0525 -0.9970 0.0571
vn -0.0857 -0.9962 0.0171
vn -0.0742 -0.9967 -0.0337
vn -0.0818 -0.9958 -0.0400
vn -0.0273 -0.9992 0.0286
vn -0.0203 -0.9984 0.0519
vn -0.0214 -0.9979 0.0608
vn -0.5796 0.0000 0.8149
vn -0.2494 0.0000 -0.9684
usemtl None
s off
f 34/1/1 1/2/1 35/3/1
f 5/4/2 35/3/2 1/2/2
f 35/3/3 5/4/3 36/5/3
f 38/6/4 2/7/4 39/8/4
f 3/9/5 39/8/5 7/10/5
f 7/10/6 39/8/6 2/7/6
f 2/7/7 36/5/7 7/10/7
f 36/5/8 2/7/8 37/11/8
f 5/4/9 7/10/9 36/5/9
f 40/12/10 39/8/10 3/9/10
f 6/13/11 8/14/11 4/15/11
f 3/9/12 6/13/12 41/16/12
f 41/16/13 6/13/13 42/17/13
f 42/17/14 6/13/14 43/18/14
f 43/18/15 6/13/15 44/19/15
f 44/19/16 6/13/16 4/15/16
f 3/9/17 8/14/17 6/13/17
f 2/7/18 38/6/18 20/20/18
f 8/14/19 3/9/19 7/10/19
f 8/14/20 7/10/20 9/21/20
f 8/14/21 9/21/21 4/15/21
f 4/15/22 9/21/22 47/22/22
f 47/22/23 9/21/23 48/23/23
f 48/23/24 9/21/24 49/24/24
f 49/24/25 9/21/25 50/25/25
f 50/25/26 9/21/26 51/26/26
f 51/26/27 9/21/27 46/27/27
f 9/21/28 7/10/28 46/27/28
f 46/27/29 7/10/29 54/28/29
f 54/28/30 7/10/30 29/29/30
f 7/10/31 5/4/31 29/29/31
f 29/29/32 5/4/32 31/30/32
f 31/30/33 5/4/33 32/31/33
f 33/32/34 32/31/34 1/2/34
f 1/2/35 32/31/35 5/4/35
f 41/16/36 42/17/36 10/33/36
f 42/17/37 43/18/37 10/33/37
f 43/18/38 44/19/38 10/33/38
f 4/15/39 47/22/39 23/34/39
f 44/19/40 4/15/40 23/34/40
f 3/9/41 41/16/41 22/35/41
f 22/35/42 40/12/42 3/9/42
f 20/20/43 37/11/43 2/7/43
f 13/36/44 14/37/44 11/38/44
f 11/38/45 12/39/45 13/36/45
f 11/38/46 18/40/46 12/39/46
f 18/40/47 11/38/47 17/41/47
f 17/41/48 11/38/48 16/42/48
f 16/42/49 11/38/49 15/43/49
f 15/43/50 11/38/50 14/37/50
f 34/1/51 35/3/51 19/44/51
f 24/45/52 19/44/52 35/3/52
f 35/3/53 36/5/53 24/45/53
f 38/6/54 39/8/54 21/46/54
f 22/35/55 26/47/55 39/8/55
f 26/47/56 21/46/56 39/8/56
f 21/46/57 26/47/57 36/5/57
f 36/5/58 37/11/58 21/46/58
f 24/45/59 36/5/59 26/47/59
f 40/12/60 22/35/60 39/8/60
f 25/48/61 23/34/61 27/49/61
f 22/35/62 41/16/62 25/48/62
f 41/16/36 42/17/36 25/48/36
f 42/17/37 43/18/37 25/48/37
f 43/18/38 44/19/38 25/48/38
f 44/19/63 23/34/63 25/48/63
f 22/35/64 25/48/64 27/49/64
f 21/46/65 20/20/65 38/6/65
f 27/49/66 26/47/66 22/35/66
f 27/49/67 28/50/67 26/47/67
f 27/49/68 23/34/68 28/50/68
f 23/34/69 47/22/69 28/50/69
f 47/22/70 48/23/70 28/50/70
f 48/23/71 49/24/71 28/50/71
f 49/24/72 50/25/72 28/50/72
f 50/25/73 51/26/73 28/50/73
f 51/26/74 46/27/74 28/50/74
f 28/50/75 46/27/75 26/47/75
f 46/27/76 45/51/76 26/47/76
f 45/51/77 29/29/77 26/47/77
f 26/47/78 29/29/78 24/45/78
f 29/29/79 31/30/79 24/45/79
f 31/30/80 32/31/80 24/45/80
f 33/32/81 19/44/81 32/31/81
f 19/44/82 24/45/82 32/31/82
f 41/16/13 52/52/13 42/17/13
f 42/17/14 52/52/14 43/18/14
f 43/18/15 52/52/15 44/19/15
f 30/53/83 45/51/83 29/29/83
f 30/53/84 29/29/84 54/28/84
f 45/51/85 54/28/85 30/53/85
f 46/27/86 54/28/86 45/51/86
f 20/20/87 21/46/87 37/11/87
f 57/54/88 55/55/88 58/56/88
f 55/55/89 57/54/89 56/57/89
f 55/55/90 56/57/90 62/58/90
f 62/58/91 61/59/91 55/55/91
f 61/59/92 60/60/92 55/55/92
f 60/60/93 59/61/93 55/55/93
f 59/61/94 58/56/94 55/55/94
f 1/2/95 34/1/95 19/44/95
f 33/32/96 1/2/96 19/44/96
l 53 9
l 53 28
