# Blender v2.82 (sub 7) OBJ File: 'reef fish 4.blend'
# www.blender.org
mtllib reef fish 4.mtl.mtl
o body_Plane.002
v -0.547828 0.006405 0.041512
v 0.020704 0.007055 -0.235764
v 0.336343 0.002591 0.031182
v 0.327959 0.002651 0.111206
v -0.294917 0.015421 0.045193
v 0.444403 0.006285 0.071810
v -0.013249 0.026042 0.048552
v 0.262865 0.011253 0.064725
v 0.242629 0.007105 0.229969
v 0.444403 -0.006285 0.071810
v -0.547828 -0.006405 0.041512
v 0.025579 0.000000 -0.272211
v 0.020704 -0.007055 -0.235764
v 0.336343 -0.002591 0.031182
v 0.327959 -0.002651 0.111206
v -0.294917 -0.015421 0.045193
v 0.444403 -0.006285 0.071810
v -0.013249 -0.026042 0.048552
v 0.262865 -0.011253 0.064725
v 0.242629 -0.007105 0.229969
v -0.283000 0.000000 0.258836
v -0.062484 0.000000 0.313098
v -0.492302 0.000000 0.134930
v -0.537467 0.000000 0.079977
v -0.578670 0.000000 0.049454
v -0.582453 0.000000 0.016883
v -0.379479 0.000000 -0.126204
v -0.285692 0.000000 -0.166776
v -0.243737 0.000000 -0.213859
v 0.384925 0.000000 -0.263093
v 0.424009 0.001440 -0.174146
v 0.474255 0.000000 -0.079389
v 0.476657 0.000000 -0.031747
v 0.525336 0.000000 0.030477
v 0.531856 0.000000 0.103932
v 0.475669 0.000000 0.174561
v -0.126191 -0.000988 0.264540
v -0.006673 0.000000 0.276768
v 0.401172 0.000000 0.184891
v 0.427260 0.000000 0.266158
v 0.385459 0.000000 0.327619
v 0.259149 0.000000 0.358172
v 0.153135 0.000000 0.354963
v 0.444403 0.006285 0.071810
v 0.242629 0.000000 0.229969
v -0.126191 0.001969 0.264540
v 0.477911 0.000000 -0.198636
v 0.515432 0.000000 -0.145178
v 0.517943 0.000000 -0.083638
v 0.424009 -0.000182 -0.174146
v 0.474255 -0.001754 -0.079389
vt 0.000000 0.000000
vt 0.000000 0.000000
vt 0.000000 0.000000
vt 0.000000 0.000000
vt 0.000000 0.000000
vt 0.000000 0.000000
vt 0.000000 0.000000
vt 0.000000 0.000000
vt 0.000000 0.000000
vt 0.000000 0.000000
vt 0.000000 0.000000
vt 0.000000 0.000000
vt 0.000000 0.000000
vt 0.000000 0.000000
vt 0.000000 0.000000
vt 0.000000 0.000000
vt 0.000000 0.000000
vt 0.000000 0.000000
vt 0.000000 0.000000
vt 0.000000 0.000000
vt 0.000000 0.000000
vt 0.000000 0.000000
vt 0.000000 0.000000
vt 0.000000 0.000000
vt 0.000000 0.000000
vt 0.000000 0.000000
vt 0.000000 0.000000
vt 0.000000 0.000000
vt 0.000000 0.000000
vt 0.000000 0.000000
vt 0.000000 0.000000
vt 0.000000 0.000000
vt 0.000000 0.000000
vt 0.000000 0.000000
vt 0.000000 0.000000
vt 0.000000 0.000000
vt 0.000000 0.000000
vt 0.000000 0.000000
vt 0.000000 0.000000
vt 0.000000 0.000000
vt 0.000000 0.000000
vt 0.000000 0.000000
vt 0.000000 0.000000
vt 0.000000 0.000000
vt 0.000000 0.000000
vt 0.000000 0.000000
vt 0.000000 0.000000
vt 0.000000 0.000000
vt 0.000000 0.000000
vt 0.000000 0.000000
vn -0.0909 0.9875 -0.1290
vn -0.0345 0.9968 -0.0727
vn -0.0320 0.9968 -0.0739
vn 0.0161 0.9996 -0.0233
vn 0.0236 0.9977 -0.0638
vn -0.0390 0.9967 -0.0712
vn -0.0288 0.9993 -0.0256
vn -0.0367 0.9966 -0.0741
vn 0.0199 -0.9998 0.0074
vn 0.0210 0.9879 0.1534
vn -0.0102 0.9979 -0.0637
vn 0.0554 0.9975 -0.0433
vn 0.0741 0.9972 -0.0066
vn 0.0555 0.9975 0.0441
vn -0.0095 0.9979 0.0639
vn 0.0339 0.9832 -0.1796
vn 0.0048 0.9819 -0.1894
vn 0.0603 0.9905 -0.1237
vn 0.0516 0.9982 0.0314
vn 0.1044 0.9938 0.0377
vn 0.0429 0.9991 -0.0067
vn 0.0410 0.9991 -0.0132
vn 0.0339 0.9992 0.0231
vn 0.0130 0.9985 0.0537
vn -0.0017 0.9985 0.0556
vn -0.0206 0.9989 0.0421
vn -0.0070 0.9935 0.1136
vn 0.0048 0.9936 0.1132
vn -0.0162 0.9946 0.1024
vn -0.0385 0.9965 0.0741
vn -0.0440 0.9963 0.0744
vn -0.0567 0.9973 0.0466
vn -0.1492 0.9681 0.2014
vn -0.0376 0.9840 0.1740
vn 0.0554 -0.9975 -0.0433
vn 0.0741 -0.9972 -0.0066
vn 0.0555 -0.9975 0.0441
vn 0.7094 0.0000 -0.7048
vn -0.3942 0.0000 0.9190
vn -0.0423 0.9798 -0.1953
vn -0.0909 -0.9875 -0.1290
vn -0.0345 -0.9968 -0.0727
vn -0.0320 -0.9968 -0.0739
vn 0.0131 0.9999 0.0082
vn -0.0390 -0.9967 -0.0712
vn -0.0288 -0.9993 -0.0256
vn -0.0367 -0.9966 -0.0741
vn 0.0176 0.9996 -0.0239
vn 0.0210 -0.9879 0.1534
vn -0.0102 -0.9979 -0.0637
vn -0.0095 -0.9979 0.0639
vn 0.0339 -0.9832 -0.1796
vn 0.0048 -0.9819 -0.1894
vn 0.0603 -0.9905 -0.1237
vn 0.0516 -0.9982 0.0314
vn 0.1044 -0.9938 0.0377
vn 0.0429 -0.9991 -0.0067
vn 0.0410 -0.9991 -0.0132
vn 0.0339 -0.9992 0.0231
vn 0.0130 -0.9985 0.0537
vn -0.0017 -0.9985 0.0556
vn -0.0206 -0.9989 0.0421
vn -0.0070 -0.9935 0.1136
vn -0.0034 -0.9935 0.1135
vn -0.0103 -0.9939 0.1099
vn -0.0385 -0.9965 0.0741
vn -0.0440 -0.9963 0.0744
vn -0.0567 -0.9973 0.0466
vn -0.1492 -0.9681 0.2014
vn -0.0376 -0.9840 0.1740
vn 0.0074 0.9995 -0.0300
vn 0.0147 -0.9981 -0.0598
vn 0.6062 0.0000 -0.7953
vn -0.1018 0.0000 0.9948
vn -0.0423 -0.9798 -0.1953
vn -0.5796 0.0000 0.8149
vn -0.2494 0.0000 -0.9684
vn 0.0203 0.9997 -0.0142
vn 0.0026 -1.0000 -0.0018
vn 0.0000 1.0000 0.0000
vn -0.0181 0.9998 0.0009
vn 0.0681 0.9974 0.0235
vn 0.0087 -0.9997 -0.0212
vn 0.0435 -0.9985 0.0346
vn 0.0400 -0.9992 -0.0016
vn 0.0217 0.9998 0.0037
vn 0.0181 0.9998 -0.0009
vn 0.0020 -1.0000 -0.0029
vn 0.0186 -0.9998 -0.0102
vn 0.0267 -0.9976 -0.0634
vn 0.0678 -0.9976 0.0172
vn -0.0051 -0.9999 -0.0139
vn 0.0342 -0.9988 0.0351
usemtl None
s off
f 26/1/1 1/2/1 27/3/1
f 5/4/2 27/3/2 1/2/2
f 27/3/3 5/4/3 28/5/3
f 47/6/4 30/7/4 31/8/4
f 7/9/5 31/8/5 2/10/5
f 2/10/6 28/5/6 7/9/6
f 28/5/7 2/10/7 29/11/7
f 5/4/8 7/9/8 28/5/8
f 13/12/9 30/7/9 31/8/9
f 6/13/10 8/14/10 4/15/10
f 3/16/11 6/13/11 33/17/11
f 33/17/12 6/13/12 34/18/12
f 34/18/13 6/13/13 35/19/13
f 35/19/14 6/13/14 36/20/14
f 36/20/15 6/13/15 4/15/15
f 3/16/16 8/14/16 6/13/16
f 2/10/17 30/7/17 12/21/17
f 8/14/18 3/16/18 7/9/18
f 8/14/19 7/9/19 9/22/19
f 8/14/20 9/22/20 4/15/20
f 4/15/21 9/22/21 39/23/21
f 39/23/22 9/22/22 40/24/22
f 40/24/23 9/22/23 41/25/23
f 41/25/24 9/22/24 42/26/24
f 42/26/25 9/22/25 43/27/25
f 43/27/26 9/22/26 38/28/26
f 9/22/27 7/9/27 38/28/27
f 38/28/28 7/9/28 46/29/28
f 46/29/29 7/9/29 21/30/29
f 7/9/30 5/4/30 21/30/30
f 21/30/31 5/4/31 23/31/31
f 23/31/32 5/4/32 24/32/32
f 25/33/33 24/32/33 1/2/33
f 1/2/34 24/32/34 5/4/34
f 33/17/35 34/18/35 10/34/35
f 34/18/36 35/19/36 10/34/36
f 35/19/37 36/20/37 10/34/37
f 4/15/38 39/23/38 15/35/38
f 36/20/39 4/15/39 15/35/39
f 12/21/40 29/11/40 2/10/40
f 26/1/41 27/3/41 11/36/41
f 16/37/42 11/36/42 27/3/42
f 27/3/43 28/5/43 16/37/43
f 48/38/44 31/8/44 32/39/44
f 13/12/45 18/40/45 28/5/45
f 28/5/46 29/11/46 13/12/46
f 16/37/47 28/5/47 18/40/47
f 2/10/48 31/8/48 30/7/48
f 17/41/49 15/35/49 19/42/49
f 14/43/50 33/17/50 17/41/50
f 33/17/35 34/18/35 17/41/35
f 34/18/36 35/19/36 17/41/36
f 35/19/37 36/20/37 17/41/37
f 36/20/51 15/35/51 17/41/51
f 14/43/52 17/41/52 19/42/52
f 13/12/53 12/21/53 30/7/53
f 19/42/54 18/40/54 14/43/54
f 19/42/55 20/44/55 18/40/55
f 19/42/56 15/35/56 20/44/56
f 15/35/57 39/23/57 20/44/57
f 39/23/58 40/24/58 20/44/58
f 40/24/59 41/25/59 20/44/59
f 41/25/60 42/26/60 20/44/60
f 42/26/61 43/27/61 20/44/61
f 43/27/62 38/28/62 20/44/62
f 20/44/63 38/28/63 18/40/63
f 38/28/64 37/45/64 18/40/64
f 37/45/65 21/30/65 18/40/65
f 18/40/66 21/30/66 16/37/66
f 21/30/67 23/31/67 16/37/67
f 23/31/68 24/32/68 16/37/68
f 25/33/69 11/36/69 24/32/69
f 11/36/70 16/37/70 24/32/70
f 33/17/12 44/46/12 34/18/12
f 34/18/13 44/46/13 35/19/13
f 35/19/14 44/46/14 36/20/14
f 22/47/71 37/45/71 21/30/71
f 22/47/72 21/30/72 46/29/72
f 37/45/73 46/29/73 22/47/73
f 38/28/74 46/29/74 37/45/74
f 12/21/75 13/12/75 29/11/75
f 1/2/76 26/1/76 11/36/76
f 25/33/77 1/2/77 11/36/77
f 48/38/78 47/6/78 31/8/78
f 48/38/79 50/48/79 47/6/79
f 48/38/80 32/39/80 49/49/80
f 49/49/80 32/39/80 33/17/80
f 33/17/81 32/39/81 14/43/81
f 7/9/82 3/16/82 31/8/82
f 51/50/83 50/48/83 48/38/83
f 49/49/84 33/17/84 51/50/84
f 51/50/85 48/38/85 49/49/85
f 32/39/86 31/8/86 3/16/86
f 32/39/87 3/16/87 33/17/87
f 47/6/88 50/48/88 30/7/88
f 30/7/89 50/48/89 13/12/89
f 18/40/90 13/12/90 50/48/90
f 18/40/91 50/48/91 14/43/91
f 50/48/92 51/50/92 14/43/92
f 51/50/93 33/17/93 14/43/93
l 45 9
l 31 50
l 45 20
l 32 51
o left_fin_Plane.001
v -0.273823 0.022213 0.088259
v -0.335125 0.017178 0.074232
v -0.323956 0.017178 0.130077
v -0.279280 0.019277 0.134545
v -0.167589 0.023710 0.101038
v -0.091640 0.028740 0.034024
v -0.105043 0.030673 -0.046394
v -0.151953 0.026282 -0.059797
vt 0.000000 0.000000
vt 0.000000 0.000000
vt 0.000000 0.000000
vt 0.000000 0.000000
vt 0.000000 0.000000
vt 0.000000 0.000000
vt 0.000000 0.000000
vt 0.000000 0.000000
vn -0.0525 0.9970 0.0571
vn -0.0857 0.9962 0.0171
vn -0.0742 0.9967 -0.0337
vn -0.0818 0.9958 -0.0400
vn -0.0273 0.9992 0.0286
vn -0.0203 0.9984 0.0519
vn -0.0214 0.9979 0.0608
usemtl None
s off
f 54/51/94 55/52/94 52/53/94
f 52/53/95 53/54/95 54/51/95
f 52/53/96 59/55/96 53/54/96
f 59/55/97 52/53/97 58/56/97
f 58/56/98 52/53/98 57/57/98
f 57/57/99 52/53/99 56/58/99
f 56/58/100 52/53/100 55/52/100
o right_fin_Plane.003
v -0.273823 -0.022213 0.088259
v -0.335125 -0.017178 0.074232
v -0.323956 -0.017178 0.130077
v -0.279280 -0.019277 0.134545
v -0.167589 -0.023710 0.101038
v -0.091640 -0.028740 0.034024
v -0.105043 -0.030673 -0.046394
v -0.151953 -0.026282 -0.059797
vt 0.000000 0.000000
vt 0.000000 0.000000
vt 0.000000 0.000000
vt 0.000000 0.000000
vt 0.000000 0.000000
vt 0.000000 0.000000
vt 0.000000 0.000000
vt 0.000000 0.000000
vn -0.0525 -0.9970 0.0571
vn -0.0857 -0.9962 0.0171
vn -0.0742 -0.9967 -0.0337
vn -0.0818 -0.9958 -0.0400
vn -0.0273 -0.9992 0.0286
vn -0.0203 -0.9984 0.0519
vn -0.0214 -0.9979 0.0608
usemtl None
s off
f 62/59/101 60/60/101 63/61/101
f 60/60/102 62/59/102 61/62/102
f 60/60/103 61/62/103 67/63/103
f 67/63/104 66/64/104 60/60/104
f 66/64/105 65/65/105 60/60/105
f 65/65/106 64/66/106 60/60/106
f 64/66/107 63/61/107 60/60/107
