# Blender v2.82 (sub 7) OBJ File: ''
# www.blender.org
mtllib boulder 2.mtl
o Icosphere_Icosphere.002
v 0.009031 -0.451752 -1.100451
v 0.565516 -0.444724 -0.900077
v -1.457951 -0.440299 -0.402072
v -0.697414 -0.445815 -0.962157
v -0.573867 -0.470469 1.149097
v 0.273012 1.006328 1.050499
v -1.126905 0.975863 0.532488
v -0.815759 1.145038 -0.601442
v 0.276388 1.133648 -0.850649
v 0.946847 1.163057 -0.001202
v -0.013592 1.458616 0.021865
v -1.421034 -0.424868 0.349018
v 0.670810 -0.433818 1.249638
v 0.001432 -0.474882 1.311255
v 1.121493 -0.362772 -0.364033
v 1.182895 -0.359345 0.383786
v 1.433290 0.481539 0.383786
v 1.372965 0.478112 -0.555832
v 0.001432 0.127976 1.311255
v 0.912017 0.324711 1.249638
v -1.581110 0.230800 0.317618
v -1.025020 0.198432 1.028709
v -0.697414 0.149021 -1.168605
v -1.457951 0.013646 -0.402072
v 0.752936 0.396160 -1.117535
v 0.009031 0.181508 -1.299923
v 0.780678 1.276170 0.831139
v -0.243770 1.052857 1.017793
v -1.283197 1.098230 -0.010946
v -0.248598 1.076020 -0.769707
v 0.688189 1.212164 -0.499997
v 0.162456 1.537082 0.499995
v 0.447399 1.402161 0.002000
v -0.425323 1.537082 0.309011
v -0.383778 1.453164 -0.283603
v 0.144532 1.424751 -0.444488
vt 0.500000 0.236191
vt 0.590909 0.236191
vt 0.590909 0.236191
vt 0.500000 0.236191
vt 0.409090 0.236191
vt 0.409090 0.236191
vt 0.045454 0.236191
vt 0.136363 0.236191
vt 0.136363 0.236191
vt 0.045454 0.236191
vt 0.818181 0.314921
vt 0.727272 0.314921
vt 0.772726 0.393651
vt 1.000000 0.314921
vt 0.909091 0.314921
vt 0.954545 0.393651
vt 0.272727 0.314921
vt 0.181818 0.314921
vt 0.227273 0.393651
vt 0.454545 0.314921
vt 0.363636 0.314921
vt 0.409090 0.393651
vt 0.636363 0.314921
vt 0.545454 0.314921
vt 0.590909 0.393651
vt 0.500000 0.393651
vt 0.545454 0.472382
vt 0.318182 0.393651
vt 0.363636 0.472382
vt 0.136363 0.393651
vt 0.181818 0.472382
vt 0.090909 0.314921
vt 0.863635 0.393651
vt 0.909090 0.472382
vt 0.681818 0.393651
vt 0.727272 0.472382
vt 0.318182 0.236191
vt 0.227273 0.236191
vt 0.954545 0.236191
vt 0.863635 0.236191
vt 0.772726 0.236191
vt 0.681818 0.236191
vt 0.772726 0.236191
vt 0.681818 0.236191
vt 0.318182 0.236191
vt 0.227273 0.236191
vt 0.954545 0.236191
vt 0.863635 0.236191
vn 0.6673 -0.3359 -0.6647
vn 0.3157 -0.2952 -0.9018
vn -0.7150 -0.2554 0.6508
vn -0.0751 0.7103 0.6999
vn -0.3842 0.7135 0.5859
vn -0.4225 0.8665 -0.2658
vn -0.1788 0.7713 -0.6109
vn 0.4272 0.8942 -0.1335
vn 0.1202 0.9923 -0.0313
vn 0.3415 0.9215 -0.1850
vn 0.2702 0.8219 -0.5014
vn 0.0352 0.9975 -0.0605
vn -0.1515 0.7601 -0.6319
vn -0.0916 0.7743 -0.6262
vn 0.0952 0.9865 -0.1330
vn -0.4031 0.9018 -0.1560
vn -0.5243 0.7859 0.3278
vn 0.0594 0.9813 -0.1829
vn -0.1906 0.7871 0.5866
vn 0.0212 0.7219 0.6917
vn 0.1106 0.9734 -0.2005
vn 0.3981 0.9171 -0.0207
vn 0.4313 0.9015 -0.0364
vn 0.6883 0.6643 -0.2915
vn 0.5249 0.5397 -0.6582
vn 0.4757 0.5545 -0.6828
vn -0.1844 0.4613 -0.8679
vn -0.1826 0.4619 -0.8679
vn -0.1988 0.4670 -0.8616
vn -0.7534 0.3271 -0.5705
vn -0.9435 0.2359 -0.2326
vn -0.8440 0.4174 0.3367
vn -0.4628 0.4331 0.7735
vn -0.2430 0.2342 0.9413
vn -0.0340 0.2941 0.9552
vn 0.1652 0.4161 0.8942
vn 0.7771 0.3402 0.5295
vn 0.7910 0.6072 0.0754
vn 0.1080 0.3993 -0.9104
vn 0.8442 -0.2595 0.4691
vn -0.6429 -0.1479 -0.7516
vn -0.7050 0.2858 -0.6490
vn 0.9539 -0.2924 -0.0676
vn -0.7490 0.2840 0.5987
vn -0.2677 -0.0038 0.9635
vn 0.0036 0.2836 0.9589
vn 0.0799 -0.0142 0.9967
vn 0.8272 0.5592 -0.0551
vn -0.9890 -0.1437 -0.0353
vn -0.1727 -0.3091 -0.9352
vn 0.0256 -0.9997 -0.0051
usemtl None
s off
f 25/1/1 18/2/1 15/3/1 2/4/1
f 26/5/2 25/1/2 2/4/2 1/6/2
f 22/7/3 21/8/3 12/9/3 5/10/3
f 6/11/4 27/12/4 32/13/4
f 7/14/5 28/15/5 34/16/5
f 8/17/6 29/18/6 35/19/6
f 9/20/7 30/21/7 36/22/7
f 10/23/8 31/24/8 33/25/8
f 33/25/9 36/26/9 11/27/9
f 33/25/10 31/24/10 36/26/10
f 31/24/11 9/20/11 36/26/11
f 36/22/12 35/28/12 11/29/12
f 36/22/13 30/21/13 35/28/13
f 30/21/14 8/17/14 35/28/14
f 35/19/15 34/30/15 11/31/15
f 35/19/16 29/18/16 34/30/16
f 29/18/17 7/32/17 34/30/17
f 34/16/18 32/33/18 11/34/18
f 34/16/19 28/15/19 32/33/19
f 28/15/20 6/11/20 32/33/20
f 32/13/21 33/35/21 11/36/21
f 32/13/22 27/12/22 33/35/22
f 27/12/23 10/23/23 33/35/23
f 18/2/24 31/24/24 10/23/24
f 18/2/25 25/1/25 31/24/25
f 25/1/26 9/20/26 31/24/26
f 26/5/27 30/21/27 9/20/27
f 26/5/28 23/37/28 30/21/28
f 23/37/29 8/17/29 30/21/29
f 24/38/30 29/18/30 8/17/30
f 24/38/31 21/8/31 29/18/31
f 21/8/32 7/32/32 29/18/32
f 22/39/33 28/15/33 7/14/33
f 22/39/34 19/40/34 28/15/34
f 19/40/35 6/11/35 28/15/35
f 20/41/36 27/12/36 6/11/36
f 20/41/37 17/42/37 27/12/37
f 17/42/38 10/23/38 27/12/38
f 25/1/39 26/5/39 9/20/39
f 17/42/40 20/41/40 13/43/40 16/44/40
f 24/38/41 23/37/41 4/45/41 3/46/41
f 23/37/42 24/38/42 8/17/42
f 18/2/43 17/42/43 16/44/43 15/3/43
f 21/8/44 22/7/44 7/32/44
f 19/40/45 22/39/45 5/47/45 14/48/45
f 19/40/46 20/41/46 6/11/46
f 20/41/47 19/40/47 14/48/47 13/43/47
f 17/42/48 18/2/48 10/23/48
f 21/8/49 24/38/49 3/46/49 12/9/49
f 23/37/50 26/5/50 1/6/50 4/45/50
f 1/6/51 2/4/51 15/3/51 16/44/51 13/43/51 14/48/51 5/47/51 12/9/51 3/46/51 4/45/51
