# Blender v2.82 (sub 7) OBJ File: ''
# www.blender.org
mtllib boulder 1.mtl
o Icosphere_Icosphere.002
v 0.723607 -0.447220 0.525725
v -0.276388 -0.447220 0.850649
v -0.894426 -0.447216 0.000000
v -0.276388 -0.447220 -0.850649
v 0.723607 -0.447220 -0.525725
v 0.276388 1.133648 0.850649
v -0.723607 1.133647 0.525725
v -0.692012 1.054121 -0.511889
v 0.276388 1.133648 -0.850649
v 0.886626 1.113862 0.000446
v 0.000000 1.686428 0.000000
v 0.262869 -0.525738 0.809012
v 0.872672 -0.536752 0.000000
v -0.688189 -0.525736 0.499997
v -0.688189 -0.525736 -0.499997
v 0.262869 -0.525738 -0.809012
v 1.182895 0.481539 0.383786
v 1.121493 0.478112 -0.364033
v 0.010572 0.482617 1.272126
v 0.559454 0.404087 0.767794
v -1.073357 0.416016 0.349018
v -0.762192 0.485457 1.062946
v -0.612738 0.393171 -0.861940
v -0.977099 0.395499 -0.355689
v 0.692463 0.478100 -0.953668
v 0.000395 0.478810 -1.212086
v 0.688189 1.212164 0.499997
v -0.243770 1.052857 0.753848
v -0.790149 1.123373 -0.001172
v -0.262869 1.212165 -0.809012
v 0.688189 1.212164 -0.499997
v 0.162456 1.537082 0.499995
v 0.445678 1.407556 -0.000000
v -0.425323 1.537082 0.309011
v -0.383778 1.453164 -0.283603
v 0.162456 1.537082 -0.499995
vt 0.727272 0.157461
vt 0.636363 0.157461
vt 0.681818 0.236191
vt 0.909090 0.157461
vt 0.818181 0.157461
vt 0.863635 0.236191
vt 0.181818 0.157461
vt 0.090909 0.157461
vt 0.136363 0.236191
vt 0.363636 0.157461
vt 0.272727 0.157461
vt 0.318182 0.236191
vt 0.545454 0.157461
vt 0.454545 0.157461
vt 0.500000 0.236191
vt 0.772726 0.236191
vt 0.954545 0.236191
vt 0.227273 0.236191
vt 0.409090 0.236191
vt 0.590909 0.236191
vt 0.818181 0.314921
vt 0.727272 0.314921
vt 0.772726 0.393651
vt 1.000000 0.314921
vt 0.909091 0.314921
vt 0.954545 0.393651
vt 0.272727 0.314921
vt 0.181818 0.314921
vt 0.227273 0.393651
vt 0.454545 0.314921
vt 0.363636 0.314921
vt 0.409090 0.393651
vt 0.636363 0.314921
vt 0.545454 0.314921
vt 0.590909 0.393651
vt 0.500000 0.393651
vt 0.545454 0.472382
vt 0.318182 0.393651
vt 0.363636 0.472382
vt 0.136363 0.393651
vt 0.181818 0.472382
vt 0.090909 0.314921
vt 0.863635 0.393651
vt 0.909090 0.472382
vt 0.681818 0.393651
vt 0.727272 0.472382
vt 0.045454 0.236191
vt 0.000000 0.157461
vn 0.8698 -0.3825 0.3118
vn 0.0098 -0.4153 0.9096
vn -0.8940 -0.3144 0.3194
vn -0.5996 -0.2502 -0.7602
vn 0.5339 -0.3401 -0.7741
vn 0.5318 -0.1352 0.8360
vn -0.2473 -0.3357 0.9089
vn -0.9800 -0.1508 -0.1295
vn -0.4651 -0.1978 -0.8629
vn 0.7854 -0.2379 -0.5715
vn 0.4089 0.6617 0.6284
vn -0.2594 0.5988 0.7577
vn -0.7038 0.6733 -0.2265
vn 0.0385 0.6617 -0.7488
vn 0.5535 0.8309 -0.0563
vn 0.5287 0.8450 -0.0806
vn 0.5242 0.8481 -0.0772
vn 0.4089 0.6617 -0.6284
vn -0.2783 0.8917 -0.3568
vn -0.3084 0.8358 -0.4543
vn -0.5652 0.6928 -0.4478
vn -0.4263 0.8910 -0.1561
vn -0.6835 0.7145 -0.1491
vn -0.7784 0.6218 0.0862
vn -0.1024 0.9435 0.3151
vn -0.2463 0.6040 0.7580
vn -0.2355 0.5988 0.7655
vn 0.5287 0.8450 0.0806
vn 0.5242 0.8481 0.0772
vn 0.5534 0.8310 0.0563
vn 0.8536 0.4578 -0.2485
vn 0.7588 0.3456 -0.5521
vn 0.5283 0.4486 -0.7209
vn 0.0026 0.4824 -0.8760
vn -0.5057 0.2690 -0.8197
vn -0.6157 0.3099 -0.7245
vn -0.9129 0.3425 -0.2219
vn -0.9412 0.3087 -0.1375
vn -0.9039 0.4144 0.1061
vn -0.2458 0.6272 0.7391
vn -0.2057 0.6064 0.7681
vn -0.2354 0.5941 0.7692
vn 0.6232 0.1548 0.7666
vn 0.4955 0.2011 0.8450
vn 0.8231 0.5217 0.2243
vn 0.3284 0.3465 -0.8787
vn 0.3362 -0.2737 -0.9011
vn 0.0182 -0.3682 -0.9296
vn -0.7935 0.2078 -0.5720
vn -0.8014 -0.1611 -0.5760
vn -0.9114 -0.2327 -0.3394
vn -0.8737 0.3402 0.3477
vn -0.8668 -0.2894 0.4060
vn -0.5315 -0.4414 0.7230
vn 0.6792 0.1828 0.7108
vn 0.6524 -0.1754 0.7373
vn 0.5355 -0.1338 0.8339
vn 0.9200 0.3842 -0.0773
vn 0.9615 -0.2636 -0.0777
vn 0.8921 -0.3296 -0.3091
vn -0.0026 -1.0000 -0.0000
usemtl None
s off
f 1/1/1 13/2/1 17/3/1
f 2/4/2 12/5/2 19/6/2
f 3/7/3 14/8/3 21/9/3
f 4/10/4 15/11/4 23/12/4
f 5/13/5 16/14/5 25/15/5
f 1/1/6 17/3/6 20/16/6
f 2/4/7 19/6/7 22/17/7
f 3/7/8 21/9/8 24/18/8
f 4/10/9 23/12/9 26/19/9
f 5/13/10 25/15/10 18/20/10
f 6/21/11 27/22/11 32/23/11
f 7/24/12 28/25/12 34/26/12
f 8/27/13 29/28/13 35/29/13
f 9/30/14 30/31/14 36/32/14
f 10/33/15 31/34/15 33/35/15
f 33/35/16 36/36/16 11/37/16
f 33/35/17 31/34/17 36/36/17
f 31/34/18 9/30/18 36/36/18
f 36/32/19 35/38/19 11/39/19
f 36/32/20 30/31/20 35/38/20
f 30/31/21 8/27/21 35/38/21
f 35/29/22 34/40/22 11/41/22
f 35/29/23 29/28/23 34/40/23
f 29/28/24 7/42/24 34/40/24
f 34/26/25 32/43/25 11/44/25
f 34/26/26 28/25/26 32/43/26
f 28/25/27 6/21/27 32/43/27
f 32/23/28 33/45/28 11/46/28
f 32/23/29 27/22/29 33/45/29
f 27/22/30 10/33/30 33/45/30
f 18/20/31 31/34/31 10/33/31
f 18/20/32 25/15/32 31/34/32
f 25/15/33 9/30/33 31/34/33
f 26/19/34 30/31/34 9/30/34
f 26/19/35 23/12/35 30/31/35
f 23/12/36 8/27/36 30/31/36
f 24/18/37 29/28/37 8/27/37
f 24/18/38 21/9/38 29/28/38
f 21/9/39 7/42/39 29/28/39
f 22/17/40 28/25/40 7/24/40
f 22/17/41 19/6/41 28/25/41
f 19/6/42 6/21/42 28/25/42
f 20/16/43 27/22/43 6/21/43
f 20/16/44 17/3/44 27/22/44
f 17/3/45 10/33/45 27/22/45
f 25/15/46 26/19/46 9/30/46
f 25/15/47 16/14/47 26/19/47
f 16/14/48 4/10/48 26/19/48
f 23/12/49 24/18/49 8/27/49
f 23/12/50 15/11/50 24/18/50
f 15/11/51 3/7/51 24/18/51
f 21/9/52 22/47/52 7/42/52
f 21/9/53 14/8/53 22/47/53
f 14/8/54 2/48/54 22/47/54
f 19/6/55 20/16/55 6/21/55
f 19/6/56 12/5/56 20/16/56
f 12/5/57 1/1/57 20/16/57
f 17/3/58 18/20/58 10/33/58
f 17/3/59 13/2/59 18/20/59
f 13/2/60 5/13/60 18/20/60
f 12/5/61 2/48/61 14/8/61 3/7/61 15/11/61 4/10/61 16/14/61 5/13/61 13/2/61 1/1/61
