# Blender v2.82 (sub 7) OBJ File: ''
# www.blender.org
mtllib boulder 3.mtl
o Icosphere_Icosphere.002
v 0.009031 -0.451752 -1.100451
v 0.565516 -0.444724 -0.900077
v -1.457951 -0.440299 -0.402072
v -0.697414 -0.445815 -0.962157
v -0.396295 -0.470469 0.895524
v 0.360054 1.094945 1.187604
v -1.126905 1.114978 0.532488
v -0.815759 1.145038 -0.601442
v 0.269218 0.858121 -0.826330
v 0.946847 1.003960 -0.001202
v -0.013592 1.458616 0.021865
v -1.240082 -0.424868 0.199636
v 0.670810 -0.433818 1.249638
v 0.001432 -0.474882 1.311255
v 1.121493 -0.362772 -0.364033
v 0.685742 -0.359345 0.383786
v 0.936137 0.481539 0.383786
v 0.875812 0.478112 -0.555832
v 0.001432 0.127976 1.426909
v 0.467547 0.333522 1.330817
v -1.299292 0.369916 0.317618
v -0.733999 0.193220 1.028709
v -0.697414 0.149021 -1.168605
v -1.457951 0.013646 -0.402072
v 0.752936 0.396160 -1.117535
v 0.009031 0.181508 -1.299923
v 0.724974 0.905502 0.621081
v -0.243770 1.191972 1.137574
v -0.976605 0.900013 -0.020959
v -0.268198 1.147250 -0.858635
v 0.688189 1.212164 -0.499997
v 0.162456 1.377985 0.499995
v 0.447399 1.402161 0.002000
v -0.425323 1.537082 0.309011
v -0.383778 1.453164 -0.283603
v 0.144532 1.424751 -0.444488
vt 0.500000 0.236191
vt 0.590909 0.236191
vt 0.590909 0.236191
vt 0.500000 0.236191
vt 0.409090 0.236191
vt 0.409090 0.236191
vt 0.045454 0.236191
vt 0.136363 0.236191
vt 0.136363 0.236191
vt 0.045454 0.236191
vt 0.818181 0.314921
vt 0.727272 0.314921
vt 0.772726 0.393651
vt 1.000000 0.314921
vt 0.909091 0.314921
vt 0.954545 0.393651
vt 0.272727 0.314921
vt 0.181818 0.314921
vt 0.227273 0.393651
vt 0.454545 0.314921
vt 0.363636 0.314921
vt 0.409090 0.393651
vt 0.636363 0.314921
vt 0.545454 0.314921
vt 0.590909 0.393651
vt 0.500000 0.393651
vt 0.545454 0.472382
vt 0.318182 0.393651
vt 0.363636 0.472382
vt 0.136363 0.393651
vt 0.181818 0.472382
vt 0.090909 0.314921
vt 0.863635 0.393651
vt 0.909090 0.472382
vt 0.681818 0.393651
vt 0.727272 0.472382
vt 0.318182 0.236191
vt 0.227273 0.236191
vt 0.954545 0.236191
vt 0.863635 0.236191
vt 0.772726 0.236191
vt 0.681818 0.236191
vt 0.772726 0.236191
vt 0.681818 0.236191
vt 0.318182 0.236191
vt 0.227273 0.236191
vt 0.954545 0.236191
vt 0.863635 0.236191
vn 0.8529 -0.0953 -0.5132
vn 0.3157 -0.2952 -0.9018
vn -0.6971 -0.3017 0.6504
vn 0.6189 0.7728 0.1403
vn -0.3634 0.8291 0.4249
vn -0.6414 0.7542 0.1406
vn 0.3537 0.5750 -0.7378
vn 0.6234 0.7819 0.0031
vn 0.1202 0.9923 -0.0313
vn 0.3415 0.9215 -0.1850
vn 0.1423 0.5745 -0.8060
vn 0.0352 0.9975 -0.0605
vn -0.1003 0.8699 -0.4829
vn -0.2349 0.8378 -0.4929
vn 0.0952 0.9865 -0.1330
vn -0.7089 0.6898 -0.1474
vn -0.5621 0.7079 -0.4276
vn 0.2375 0.9684 0.0759
vn 0.1348 0.9248 0.3557
vn 0.1206 0.9297 0.3480
vn 0.1258 0.9848 0.1198
vn 0.5555 0.7522 0.3544
vn 0.5904 0.7378 0.3272
vn 0.8976 0.2567 -0.3583
vn 0.9354 0.2575 -0.2422
vn 0.1031 0.6054 -0.7892
vn 0.3010 0.4665 -0.8318
vn -0.1864 0.3636 -0.9127
vn -0.3870 0.4211 -0.8203
vn -0.8718 0.4886 -0.0353
vn -0.8677 0.4942 -0.0533
vn -0.8814 0.3074 -0.3587
vn -0.5661 0.1905 0.8020
vn -0.4629 0.1317 0.8766
vn -0.0393 0.2538 0.9665
vn 0.8524 0.2104 0.4787
vn 0.8708 0.1771 0.4586
vn 0.8998 0.2467 0.3599
vn 0.0401 0.5626 -0.8258
vn 0.9667 -0.0411 0.2528
vn -0.6429 -0.1479 -0.7516
vn -0.7050 0.2858 -0.6490
vn 0.9759 0.0220 0.2170
vn -0.7826 0.0015 0.6225
vn -0.5683 -0.3019 0.7654
vn 0.1129 0.1990 0.9735
vn 0.1615 -0.1168 0.9799
vn 0.9957 -0.0673 -0.0637
vn -0.9536 -0.0728 0.2922
vn -0.1727 -0.3091 -0.9352
vn 0.0335 -0.9994 0.0001
usemtl None
s off
f 25/1/1 18/2/1 15/3/1 2/4/1
f 26/5/2 25/1/2 2/4/2 1/6/2
f 22/7/3 21/8/3 12/9/3 5/10/3
f 6/11/4 27/12/4 32/13/4
f 7/14/5 28/15/5 34/16/5
f 8/17/6 29/18/6 35/19/6
f 9/20/7 30/21/7 36/22/7
f 10/23/8 31/24/8 33/25/8
f 33/25/9 36/26/9 11/27/9
f 33/25/10 31/24/10 36/26/10
f 31/24/11 9/20/11 36/26/11
f 36/22/12 35/28/12 11/29/12
f 36/22/13 30/21/13 35/28/13
f 30/21/14 8/17/14 35/28/14
f 35/19/15 34/30/15 11/31/15
f 35/19/16 29/18/16 34/30/16
f 29/18/17 7/32/17 34/30/17
f 34/16/18 32/33/18 11/34/18
f 34/16/19 28/15/19 32/33/19
f 28/15/20 6/11/20 32/33/20
f 32/13/21 33/35/21 11/36/21
f 32/13/22 27/12/22 33/35/22
f 27/12/23 10/23/23 33/35/23
f 18/2/24 31/24/24 10/23/24
f 18/2/25 25/1/25 31/24/25
f 25/1/26 9/20/26 31/24/26
f 26/5/27 30/21/27 9/20/27
f 26/5/28 23/37/28 30/21/28
f 23/37/29 8/17/29 30/21/29
f 24/38/30 29/18/30 8/17/30
f 24/38/31 21/8/31 29/18/31
f 21/8/32 7/32/32 29/18/32
f 22/39/33 28/15/33 7/14/33
f 22/39/34 19/40/34 28/15/34
f 19/40/35 6/11/35 28/15/35
f 20/41/36 27/12/36 6/11/36
f 20/41/37 17/42/37 27/12/37
f 17/42/38 10/23/38 27/12/38
f 25/1/39 26/5/39 9/20/39
f 17/42/40 20/41/40 13/43/40 16/44/40
f 24/38/41 23/37/41 4/45/41 3/46/41
f 23/37/42 24/38/42 8/17/42
f 18/2/43 17/42/43 16/44/43 15/3/43
f 21/8/44 22/7/44 7/32/44
f 19/40/45 22/39/45 5/47/45 14/48/45
f 19/40/46 20/41/46 6/11/46
f 20/41/47 19/40/47 14/48/47 13/43/47
f 17/42/48 18/2/48 10/23/48
f 21/8/49 24/38/49 3/46/49 12/9/49
f 23/37/50 26/5/50 1/6/50 4/45/50
f 1/6/51 2/4/51 15/3/51 16/44/51 13/43/51 14/48/51 5/47/51 12/9/51 3/46/51 4/45/51
