# Blender v2.82 (sub 7) OBJ File: ''
# www.blender.org
mtllib boulder 4.mtl
o Icosphere_Icosphere.002
v 0.009031 -0.451752 -1.100451
v 0.565516 -0.444724 -0.900077
v -1.457951 -0.440299 -0.008474
v -0.697414 -0.445815 -0.962157
v -0.396295 -0.470469 0.895524
v 0.220669 1.102749 0.694113
v -0.641607 1.118776 0.565002
v -0.735520 0.784711 -0.575790
v 0.269218 1.215640 -0.826330
v 0.716745 1.003960 -0.001202
v -0.013592 1.816136 0.021865
v -1.240082 -0.424868 0.199636
v 0.670810 -0.433818 1.249638
v 0.001432 -0.474882 1.311255
v 1.121493 -0.362772 -0.364033
v 0.685742 -0.359345 0.383786
v 0.936137 0.481539 0.383786
v 0.875812 0.478112 -0.159666
v 0.001432 0.127976 1.426909
v 0.467547 0.333522 1.330817
v -1.134198 0.470270 0.324506
v -0.733999 0.193220 1.028709
v -0.997935 0.149021 -0.778420
v -1.271038 0.013646 -0.408052
v 0.752936 0.618469 -0.721370
v -0.291490 0.181508 -0.909737
v 0.724974 0.905502 0.621081
v -0.262390 1.180371 0.654089
v -0.940586 0.903087 -0.010834
v -0.268198 0.816516 -0.858635
v 0.688189 1.103739 -0.499997
v 0.162456 1.377985 0.499995
v 0.447399 1.563876 0.002000
v -0.425323 1.327474 0.309011
v -0.584890 1.234977 -0.168421
v 0.144532 1.451536 -0.444488
vt 0.500000 0.236191
vt 0.590909 0.236191
vt 0.590909 0.236191
vt 0.500000 0.236191
vt 0.409090 0.236191
vt 0.409090 0.236191
vt 0.045454 0.236191
vt 0.136363 0.236191
vt 0.136363 0.236191
vt 0.045454 0.236191
vt 0.818181 0.314921
vt 0.727272 0.314921
vt 0.772726 0.393651
vt 1.000000 0.314921
vt 0.909091 0.314921
vt 0.954545 0.393651
vt 0.272727 0.314921
vt 0.181818 0.314921
vt 0.227273 0.393651
vt 0.454545 0.314921
vt 0.363636 0.314921
vt 0.409090 0.393651
vt 0.636363 0.314921
vt 0.545454 0.314921
vt 0.590909 0.393651
vt 0.500000 0.393651
vt 0.545454 0.472382
vt 0.318182 0.393651
vt 0.363636 0.472382
vt 0.136363 0.393651
vt 0.181818 0.472382
vt 0.090909 0.314921
vt 0.863635 0.393651
vt 0.909090 0.472382
vt 0.681818 0.393651
vt 0.727272 0.472382
vt 0.318182 0.236191
vt 0.227273 0.236191
vt 0.954545 0.236191
vt 0.863635 0.236191
vt 0.772726 0.236191
vt 0.681818 0.236191
vt 0.772726 0.236191
vt 0.681818 0.236191
vt 0.318182 0.236191
vt 0.227273 0.236191
vt 0.954545 0.236191
vt 0.863635 0.236191
vn 0.8464 0.1298 -0.5165
vn 0.1720 0.2205 -0.9601
vn -0.7542 -0.2149 0.6205
vn 0.3368 0.5892 0.7344
vn -0.2490 0.8430 0.4769
vn -0.7153 0.5851 -0.3822
vn -0.4675 0.6756 -0.5701
vn 0.9007 0.4331 0.0351
vn 0.4072 0.7814 -0.4728
vn 0.4352 0.7579 -0.4859
vn 0.4815 0.8072 -0.3414
vn -0.4312 0.6341 -0.6419
vn -0.4282 0.6722 -0.6040
vn -0.4115 0.6833 -0.6031
vn -0.7267 0.6778 0.1116
vn -0.6618 0.7457 0.0767
vn -0.6562 0.7523 0.0589
vn -0.2843 0.6524 0.7025
vn -0.2261 0.8530 0.4704
vn 0.0257 0.5798 0.8144
vn 0.4271 0.7395 0.5204
vn 0.4740 0.7009 0.5329
vn 0.8998 0.4325 0.0565
vn 0.9574 0.2887 0.0029
vn 0.9660 0.2022 -0.1608
vn 0.6283 0.3907 -0.6727
vn 0.0004 0.0802 -0.9968
vn -0.1859 0.0856 -0.9788
vn -0.4865 0.4412 -0.7541
vn -0.7948 0.4679 -0.3865
vn -0.9272 0.3702 -0.0575
vn -0.8144 0.5363 0.2220
vn -0.2729 0.4526 0.8489
vn -0.3837 0.4822 0.7876
vn 0.0294 0.5964 0.8021
vn 0.3544 0.6611 0.6613
vn 0.8708 0.1771 0.4586
vn 0.9056 0.4205 0.0546
vn 0.1863 -0.0218 -0.9823
vn 0.9667 -0.0411 0.2528
vn -0.7608 -0.2089 -0.6144
vn -0.7875 0.4569 -0.4137
vn 0.9595 -0.0366 0.2792
vn -0.7449 0.3568 0.5637
vn -0.5683 -0.3019 0.7654
vn -0.1089 0.6129 0.7826
vn 0.1615 -0.1168 0.9799
vn 0.9424 0.3172 -0.1066
vn -0.9406 0.2507 0.2289
vn -0.1872 0.2015 -0.9614
vn 0.0355 -0.9994 0.0001
usemtl None
s off
f 25/1/1 18/2/1 15/3/1 2/4/1
f 26/5/2 25/1/2 2/4/2 1/6/2
f 22/7/3 21/8/3 12/9/3 5/10/3
f 6/11/4 27/12/4 32/13/4
f 7/14/5 28/15/5 34/16/5
f 8/17/6 29/18/6 35/19/6
f 9/20/7 30/21/7 36/22/7
f 10/23/8 31/24/8 33/25/8
f 33/25/9 36/26/9 11/27/9
f 33/25/10 31/24/10 36/26/10
f 31/24/11 9/20/11 36/26/11
f 36/22/12 35/28/12 11/29/12
f 36/22/13 30/21/13 35/28/13
f 30/21/14 8/17/14 35/28/14
f 35/19/15 34/30/15 11/31/15
f 35/19/16 29/18/16 34/30/16
f 29/18/17 7/32/17 34/30/17
f 34/16/18 32/33/18 11/34/18
f 34/16/19 28/15/19 32/33/19
f 28/15/20 6/11/20 32/33/20
f 32/13/21 33/35/21 11/36/21
f 32/13/22 27/12/22 33/35/22
f 27/12/23 10/23/23 33/35/23
f 18/2/24 31/24/24 10/23/24
f 18/2/25 25/1/25 31/24/25
f 25/1/26 9/20/26 31/24/26
f 26/5/27 30/21/27 9/20/27
f 26/5/28 23/37/28 30/21/28
f 23/37/29 8/17/29 30/21/29
f 24/38/30 29/18/30 8/17/30
f 24/38/31 21/8/31 29/18/31
f 21/8/32 7/32/32 29/18/32
f 22/39/33 28/15/33 7/14/33
f 22/39/34 19/40/34 28/15/34
f 19/40/35 6/11/35 28/15/35
f 20/41/36 27/12/36 6/11/36
f 20/41/37 17/42/37 27/12/37
f 17/42/38 10/23/38 27/12/38
f 25/1/39 26/5/39 9/20/39
f 17/42/40 20/41/40 13/43/40 16/44/40
f 24/38/41 23/37/41 4/45/41 3/46/41
f 23/37/42 24/38/42 8/17/42
f 18/2/43 17/42/43 16/44/43 15/3/43
f 21/8/44 22/7/44 7/32/44
f 19/40/45 22/39/45 5/47/45 14/48/45
f 19/40/46 20/41/46 6/11/46
f 20/41/47 19/40/47 14/48/47 13/43/47
f 17/42/48 18/2/48 10/23/48
f 21/8/49 24/38/49 3/46/49 12/9/49
f 23/37/50 26/5/50 1/6/50 4/45/50
f 1/6/51 2/4/51 15/3/51 16/44/51 13/43/51 14/48/51 5/47/51 12/9/51 3/46/51 4/45/51
