# Blender v2.82 (sub 7) OBJ File: ''
# www.blender.org
mtllib pillar 2.mtl
o Icosphere_Icosphere.001
v 0.288333 1.238174 0.849552
v -0.723607 1.604220 0.525725
v -0.689906 1.419147 -0.524449
v 0.310240 1.619009 -0.957598
v 1.001234 1.618161 0.009649
v 0.006213 3.526919 -0.000000
v 0.951058 0.000000 0.309013
v 0.951058 0.000000 -0.309013
v 0.000000 0.000000 1.000000
v 0.587786 0.000000 0.809017
v -0.951058 0.000000 0.309013
v -0.587786 0.000000 0.809017
v -0.587786 0.000000 -0.809017
v -0.951058 0.000000 -0.309013
v 0.587786 0.000000 -0.809017
v 0.000000 0.000000 -1.000000
v 0.772129 1.698115 0.561976
v -0.262869 1.682738 0.809012
v -0.928284 1.694484 0.000391
v -0.255502 1.678501 -0.815697
v 0.706915 1.686820 -0.518770
v 0.221710 2.609299 0.588054
v 0.588450 2.696120 0.004502
v -0.458418 2.498611 0.362571
v -0.509240 3.489577 -0.369743
v 0.165512 3.423874 -0.508839
vt 0.818181 0.314921
vt 0.727272 0.314921
vt 0.772726 0.393651
vt 1.000000 0.314921
vt 0.909091 0.314921
vt 0.954545 0.393651
vt 0.272727 0.314921
vt 0.181818 0.314921
vt 0.227273 0.393651
vt 0.454545 0.314921
vt 0.363636 0.314921
vt 0.409090 0.393651
vt 0.636363 0.314921
vt 0.545454 0.314921
vt 0.590909 0.393651
vt 0.500000 0.393651
vt 0.545454 0.472382
vt 0.318182 0.393651
vt 0.363636 0.472382
vt 0.136363 0.393651
vt 0.181818 0.472382
vt 0.090909 0.314921
vt 0.863635 0.393651
vt 0.909090 0.472382
vt 0.681818 0.393651
vt 0.727272 0.472382
vt 0.590909 0.236191
vt 0.500000 0.236191
vt 0.409090 0.236191
vt 0.318182 0.236191
vt 0.227273 0.236191
vt 0.136363 0.236191
vt 0.954545 0.236191
vt 0.863635 0.236191
vt 0.772726 0.236191
vt 0.681818 0.236191
vt 0.045454 0.236191
vn 0.3605 0.1916 0.9129
vn -0.5361 0.3027 0.7880
vn -0.8816 0.1112 -0.4587
vn -0.2156 0.2193 -0.9515
vn 0.8444 0.3213 -0.4286
vn 0.8107 0.5689 0.1386
vn 0.8973 0.2816 -0.3400
vn 0.7056 0.2238 -0.6724
vn 0.0584 0.9818 -0.1806
vn -0.1775 0.2118 -0.9611
vn -0.5985 0.1115 -0.7933
vn -0.5326 0.4852 0.6935
vn -0.8441 0.2900 0.4511
vn -0.8604 0.3265 0.3913
vn -0.3462 0.4472 0.8247
vn -0.3463 0.3851 0.8554
vn 0.0817 0.1905 0.9783
vn 0.7011 0.4941 0.5141
vn 0.7348 0.4288 0.5256
vn 0.8849 0.3404 0.3178
vn 0.8753 0.0672 -0.4788
vn 0.8082 0.0440 -0.5872
vn 0.7354 0.0641 -0.6746
vn -0.2357 0.0705 -0.9693
vn -0.3085 0.0573 -0.9495
vn -0.5998 0.1156 -0.7917
vn -0.8868 0.0945 -0.4524
vn -0.9999 0.0134 0.0000
vn -0.9240 0.0805 0.3738
vn -0.5337 0.1030 0.8394
vn -0.3085 0.0596 0.9494
vn 0.0204 0.1159 0.9931
vn 0.4519 0.0802 0.8885
vn 0.8090 -0.0023 0.5878
vn 0.9250 0.0412 0.3777
vn 0.3088 -0.0343 -0.9505
vn 0.0000 -1.0000 0.0000
vn -0.8076 0.0595 -0.5867
vn -0.8085 0.0353 0.5874
vn 0.3087 0.0436 0.9502
vn 0.9995 -0.0310 0.0000
usemtl None
s off
f 1/1/1 17/2/1 22/3/1
f 2/4/2 18/5/2 24/6/2
f 3/7/3 19/8/3 25/9/3
f 4/10/4 20/11/4 26/12/4
f 5/13/5 21/14/5 23/15/5
f 23/15/6 26/16/6 6/17/6
f 23/15/7 21/14/7 26/16/7
f 21/14/8 4/10/8 26/16/8
f 26/12/9 25/18/9 6/19/9
f 26/12/10 20/11/10 25/18/10
f 20/11/11 3/7/11 25/18/11
f 25/9/12 24/20/12 6/21/12
f 25/9/13 19/8/13 24/20/13
f 19/8/14 2/22/14 24/20/14
f 24/6/15 22/23/15 6/24/15
f 24/6/16 18/5/16 22/23/16
f 18/5/17 1/1/17 22/23/17
f 22/3/18 23/25/18 6/26/18
f 22/3/19 17/2/19 23/25/19
f 17/2/20 5/13/20 23/25/20
f 8/27/21 21/14/21 5/13/21
f 8/27/22 15/28/22 21/14/22
f 15/28/23 4/10/23 21/14/23
f 16/29/24 20/11/24 4/10/24
f 16/29/25 13/30/25 20/11/25
f 13/30/26 3/7/26 20/11/26
f 14/31/27 19/8/27 3/7/27
f 14/31/28 11/32/28 19/8/28
f 11/32/29 2/22/29 19/8/29
f 12/33/30 18/5/30 2/4/30
f 12/33/31 9/34/31 18/5/31
f 9/34/32 1/1/32 18/5/32
f 10/35/33 17/2/33 1/1/33
f 10/35/34 7/36/34 17/2/34
f 7/36/35 5/13/35 17/2/35
f 15/28/36 16/29/36 4/10/36
f 8/27/37 7/36/37 10/35/37 9/34/37 12/33/37 11/32/37 14/31/37 13/30/37 16/29/37 15/28/37
f 13/30/38 14/31/38 3/7/38
f 11/32/39 12/37/39 2/22/39
f 9/34/40 10/35/40 1/1/40
f 7/36/41 8/27/41 5/13/41
