# Blender v2.82 (sub 7) OBJ File: 'reef fish 3.blend'
# www.blender.org
mtllib reef fish 3.mtl
o Plane_Plane.001
v 0.153554 0.008063 0.375449
v -0.300666 0.049175 0.045913
v 0.042322 0.068126 0.057449
v 0.537748 0.033817 0.028548
v -0.593837 0.011944 -0.281139
v -0.600122 0.020717 0.071155
v 0.299951 0.051169 0.068050
v 0.290343 0.040241 0.165653
v 0.133854 0.058242 0.161826
v 0.134263 0.077776 0.017545
v -0.085907 0.000000 0.398096
v 0.153554 -0.008063 0.375449
v -0.300666 -0.049175 0.045913
v 0.001815 0.000000 0.484424
v 0.304021 0.000000 0.354817
v 0.525608 0.000000 0.196213
v 0.601590 0.000000 0.121216
v 0.644762 0.000000 0.016537
v 0.575446 0.000000 -0.059730
v 0.530337 0.000000 -0.062028
v 0.235512 0.000000 -0.306071
v -0.772898 0.000000 -0.325988
v -0.612648 0.000000 -0.237643
v -0.540743 0.000000 0.010953
v -0.755501 0.000000 -0.114988
v -0.756445 0.000000 0.057290
v -0.669989 0.000000 0.241596
v -0.509513 0.000000 0.116008
v -0.551362 0.000000 0.290334
v -0.269112 0.000000 0.399227
v 0.042322 -0.068126 0.057449
v 0.537748 -0.033817 0.028548
v -0.593837 -0.011944 -0.281139
v -0.600122 -0.020717 0.071155
v 0.299951 -0.051169 0.068050
v 0.290343 -0.040241 0.165653
v 0.133854 -0.058242 0.161826
v 0.134263 -0.077776 0.017545
vt 0.000000 0.000000
vt 0.000000 0.000000
vt 0.000000 0.000000
vt 0.000000 0.000000
vt 0.000000 0.000000
vt 0.000000 0.000000
vt 0.000000 0.000000
vt 0.000000 0.000000
vt 0.000000 0.000000
vt 0.000000 0.000000
vt 0.000000 0.000000
vt 0.000000 0.000000
vt 0.000000 0.000000
vt 0.000000 0.000000
vt 0.000000 0.000000
vt 0.000000 0.000000
vt 0.000000 0.000000
vt 0.000000 0.000000
vt 0.000000 0.000000
vt 0.000000 0.000000
vt 0.000000 0.000000
vt 0.000000 0.000000
vt 0.000000 0.000000
vt 0.000000 0.000000
vt 0.000000 0.000000
vt 0.000000 0.000000
vt 0.000000 0.000000
vt 0.000000 0.000000
vt 0.000000 0.000000
vt 0.000000 0.000000
vt 0.000000 0.000000
vt 0.000000 0.000000
vt 0.000000 0.000000
vt 0.000000 0.000000
vt 0.000000 0.000000
vt 0.000000 0.000000
vt 0.000000 0.000000
vn -0.0602 0.9829 0.1739
vn -0.0150 0.9815 0.1906
vn 0.0772 0.9806 0.1801
vn 0.0747 0.9843 0.1598
vn 0.0774 0.9845 0.1575
vn 0.1780 0.9575 0.2268
vn 0.3119 0.9414 0.1286
vn 0.2674 0.9324 -0.2430
vn 0.0179 0.9362 -0.3510
vn 0.2941 0.8873 -0.3553
vn 0.0594 0.9864 -0.1533
vn -0.3537 0.9297 0.1023
vn -0.1185 0.9694 0.2150
vn 0.0055 0.9606 -0.2777
vn 0.0088 0.9837 -0.1797
vn -0.0528 0.9964 -0.0661
vn 0.0009 0.9905 0.1378
vn -0.0550 0.9883 0.1425
vn -0.2476 0.9670 -0.0595
vn -0.0418 0.8722 0.4873
vn 0.1366 0.9751 0.1745
vn -0.1367 0.9885 0.0641
vn -0.1313 0.9913 -0.0007
vn 0.1240 0.9695 -0.2114
vn -0.1212 0.8957 -0.4278
vn -0.2110 0.9744 0.0782
vn 0.1147 0.9850 0.1288
vn -0.0602 -0.9829 0.1739
vn -0.0150 -0.9815 0.1906
vn 0.0772 -0.9806 0.1801
vn 0.0747 -0.9843 0.1598
vn 0.0774 -0.9845 0.1575
vn 0.1780 -0.9575 0.2268
vn 0.3119 -0.9414 0.1286
vn 0.2674 -0.9324 -0.2430
vn 0.0179 -0.9362 -0.3510
vn 0.2941 -0.8873 -0.3553
vn 0.0594 -0.9864 -0.1533
vn -0.3537 -0.9297 0.1023
vn -0.1185 -0.9694 0.2150
vn 0.0055 -0.9606 -0.2777
vn 0.0088 -0.9837 -0.1797
vn -0.0528 -0.9964 -0.0661
vn 0.0009 -0.9905 0.1378
vn -0.0550 -0.9883 0.1425
vn -0.2476 -0.9670 -0.0595
vn -0.0418 -0.8722 0.4873
vn 0.1366 -0.9751 0.1745
vn -0.1367 -0.9885 0.0641
vn -0.1313 -0.9913 -0.0007
vn 0.1240 -0.9695 -0.2114
vn -0.1212 -0.8957 -0.4278
vn -0.2110 -0.9744 0.0782
vn 0.1147 -0.9850 0.1288
vn -0.5833 0.0000 -0.8122
vn 0.0942 0.0000 0.9956
usemtl None
s off
f 2/1/1 11/2/1 3/3/1
f 1/4/2 3/3/2 11/2/2
f 14/5/3 15/6/3 1/4/3
f 1/4/4 15/6/4 3/3/4
f 3/3/5 15/6/5 4/7/5
f 15/6/6 17/8/6 4/7/6
f 18/9/7 4/7/7 17/8/7
f 19/10/8 4/7/8 18/9/8
f 20/11/9 4/7/9 19/10/9
f 21/12/10 4/7/10 20/11/10
f 4/7/11 21/12/11 3/3/11
f 5/13/12 23/14/12 24/15/12
f 23/14/13 5/13/13 22/16/13
f 22/16/14 5/13/14 21/12/14
f 21/12/15 5/13/15 3/3/15
f 2/1/16 3/3/16 5/13/16
f 2/1/17 30/17/17 11/2/17
f 30/17/18 2/1/18 29/18/18
f 29/18/19 2/1/19 28/19/19
f 2/1/20 6/20/20 28/19/20
f 28/19/21 6/20/21 27/21/21
f 27/21/22 6/20/22 26/22/22
f 26/22/23 6/20/23 25/23/23
f 25/23/24 6/20/24 24/15/24
f 6/20/25 2/1/25 24/15/25
f 5/13/26 24/15/26 2/1/26
f 8/24/27 7/25/27 10/26/27 9/27/27
f 13/28/28 31/29/28 11/2/28
f 12/30/29 11/2/29 31/29/29
f 14/5/30 12/30/30 15/6/30
f 12/30/31 31/29/31 15/6/31
f 31/29/32 32/31/32 15/6/32
f 15/6/33 32/31/33 17/8/33
f 18/9/34 17/8/34 32/31/34
f 19/10/35 18/9/35 32/31/35
f 20/11/36 19/10/36 32/31/36
f 21/12/37 20/11/37 32/31/37
f 32/31/38 31/29/38 21/12/38
f 33/32/39 24/15/39 23/14/39
f 23/14/40 22/16/40 33/32/40
f 22/16/41 21/12/41 33/32/41
f 21/12/42 31/29/42 33/32/42
f 13/28/43 33/32/43 31/29/43
f 13/28/44 11/2/44 30/17/44
f 30/17/45 29/18/45 13/28/45
f 29/18/46 28/19/46 13/28/46
f 13/28/47 28/19/47 34/33/47
f 28/19/48 27/21/48 34/33/48
f 27/21/49 26/22/49 34/33/49
f 26/22/50 25/23/50 34/33/50
f 25/23/51 24/15/51 34/33/51
f 34/33/52 24/15/52 13/28/52
f 33/32/53 13/28/53 24/15/53
f 36/34/54 37/35/54 38/36/54 35/37/54
f 14/5/55 1/4/55 12/30/55
f 1/4/56 11/2/56 12/30/56
l 15 16
l 16 17
